<svg id="Camada_1" data-name="Camada 1" xmlns="http://www.w3.org/2000/svg" viewBox="0 0 133.82 147.21"><defs><style>.cls-1,.cls-2{fill:#064584;}.cls-2{font-size:82.68px;font-family:Arial-Black, Arial Black;font-weight:800;letter-spacing:-0.08em;}</style></defs><path class="cls-1" d="M984.91,890.49c0,.84.09,1.43.09,2q0,44.64,0,89.28c0,5.87-2.38,10.38-7.61,12.93a17.49,17.49,0,0,1-7.41,1.54q-50.62.13-101.24.06c-1.31,0-2.63,0-3.94,0a13.76,13.76,0,0,1-13.56-13.65c-.06-16.11.07-32.21.07-48.31q0-20.83-.14-41.67c0-1.71.44-2.22,2.18-2.21q64.67.06,129.33,0ZM918,983.67h51.14c3.21,0,3.21,0,3.21-3.12v-76c0-2.65-.09-2.75-2.68-2.75H866.52c-2.42,0-2.6.18-2.61,2.69v76.17c0,3,0,3,3,3Z" transform="translate(-851.19 -849.55)"/><path class="cls-1" d="M918,887H853.59c-2.35,0-2.35,0-2.35-2.35,0-2.74,0-5.49,0-8.23a14,14,0,0,1,13.93-13.91c1.43,0,2.07.32,2,1.88-.12,1.9,0,3.81,0,5.72a10.12,10.12,0,0,0,20.23.14c0-2.09.06-4.18,0-6.26,0-1.06.31-1.48,1.43-1.47q8.85.06,17.7,0c1.18,0,1.58.42,1.57,1.57,0,2.38-.09,4.78.12,7.14a10,10,0,0,0,10.05,9,10.12,10.12,0,0,0,10-9.35c.15-2.26.1-4.53,0-6.79,0-1.13.29-1.6,1.5-1.59,5.9,0,11.8,0,17.71,0,1.19,0,1.55.47,1.51,1.6-.06,2,0,4.06,0,6.08a10.07,10.07,0,0,0,20.11.83c.2-2.31.12-4.65.09-7,0-1.14.36-1.53,1.55-1.55A13.88,13.88,0,0,1,985,876.17c.07,2.74,0,5.49,0,8.23,0,2.56,0,2.57-2.65,2.57H918Z" transform="translate(-851.19 -849.55)"/><path class="cls-1" d="M884,863.18c0,2.2,0,4.41,0,6.61-.07,4.08-3,7-6.81,7a6.72,6.72,0,0,1-6.58-7q0-6.53,0-13c0-4.23,2.9-7.21,6.8-7.15s6.57,3.07,6.59,7.19C884,858.89,884,861,884,863.18Z" transform="translate(-851.19 -849.55)"/><path class="cls-1" d="M965.78,863.14c0,2.21,0,4.41,0,6.62-.08,4.09-3,7-6.78,7s-6.54-3-6.57-7c0-4.47,0-8.94,0-13.4a6.66,6.66,0,1,1,13.32-.2c.11,2.32,0,4.64,0,7Z" transform="translate(-851.19 -849.55)"/><path class="cls-1" d="M924.8,863.1c0,2.33.05,4.65,0,7a6.64,6.64,0,1,1-13.28.1c-.08-4.64-.08-9.29,0-13.93a6.65,6.65,0,1,1,13.3.08C924.84,858.58,924.8,860.84,924.8,863.1Z" transform="translate(-851.19 -849.55)"/><text class="cls-2" transform="translate(14.63 121.86)">90</text></svg>