<svg id="Camada_1" data-name="Camada 1" xmlns="http://www.w3.org/2000/svg" viewBox="0 0 252 252"><defs><style>.cls-1{fill:#064584;}</style></defs><path class="cls-1" d="M423.07,701.53C426,699.72,429,698,431.76,696c.6-.43.75-1.83.72-2.77-.09-3.29-.43-6.57-.51-9.86,0-1.66-.68-2.26-2.26-1.9s-3.47.51-4.91,1.3c-1.13.62-1.8,2.09-2.68,3.21a.91.91,0,0,1-.17-.58c1.68-6.23,3.34-12.48,5.13-18.68a26.76,26.76,0,0,1,2.24-5.19c.89-1.66,1.5-3.07-1.37-3.88l.29-.68c3.82-1.66,7.53-3.71,11.49-4.94A791.51,791.51,0,0,1,529,630.38c7.52-1.39,15.21-2.94,22.76-2.69,7.8.26,15.67,2.15,23.27,4.19,7.82,2.1,15.33,5.31,23,7.9a11,11,0,0,0,4.94.56,153.82,153.82,0,0,1,37-.69c3.8.34,7.05,1.8,9.18,5.31,2.31,3.82,5.82,6.93,6.67,11.63a3.06,3.06,0,0,1-.9,3.32c-1.33,1.4-1.67,3.81-2.17,5.85-.06.23,1.6.93,2.5,1.33s2,.81,3.05,1.2c-.77.8-1.41,2-2.35,2.33-5.16,1.81-10.39,3.41-16,5.21-.37-1.52-.68-2.75-1-4-1-4.46-2.46-8.75-5.78-12.08-5.78-5.79-12.79-6.59-20.21-4.21-11.12,3.58-15.82,11.55-14,23.15.66,4.33,1.57,4.16-3.58,5.31l-98,22-.56.13c-4.81,1.08-4.64,1-6.81-3.3a35.58,35.58,0,0,0-5.32-8.21c-3.71-4-8.62-5.6-14.14-5-4.86.56-9.49,1.86-13.47,4.79-6.8,5-7.58,11.92-6.12,19.54.94,4.89.91,5-4,5.68-5.71.8-11.44,1.48-17.17,2.1-3.23.34-5.06-1-6.11-4.18-1.41-4.25-2.66-8.46-.65-12.93C423.42,703.76,423.07,702.59,423.07,701.53Zm80-63-.19-.76c-7.16,1.75-14.3,3.58-21.49,5.17-2.48.55-3.27,1.68-2.95,4.1.8,6.07,1.43,12.16,2.19,18.23.44,3.58.56,3.6,4.05,2.93,15.67-3,31.34-6.11,47-9,2.57-.48,3-1.47,2.4-3.82q-2.56-9.84-4.81-19.77c-.53-2.36-1.54-3.13-3.94-2.52C518,635,510.54,636.75,503.11,638.56Zm77.33-1c-2.45-.87-4.32-1.69-6.26-2.21-7-1.86-13.94-4.59-21-5.15-6.84-.54-13.86,1.18-20.8,1.92-1.94.2-1.88,1.4-1.45,2.86,2,7,4,13.94,6,20.93.5,1.8,1.55,2.11,3.19,1.79,14.66-2.86,29.33-5.68,44-8.55a13.36,13.36,0,0,0,2.39-1l-.1-.88c-.8-.07-1.6-.21-2.39-.21-1.79,0-3.59.09-5.38.1a3,3,0,0,1-3.38-3c-.37-3.48-1.34-4.94,3.48-5.74A8.66,8.66,0,0,0,580.44,637.54Zm-104,32.19c1.64-.17,2.86-.54,2.57-2.75-.89-6.71-1.62-13.45-2.35-20.19-.19-1.78-1-2.26-2.65-1.77-8.06,2.4-16.13,4.74-24.17,7.16-7.35,2.21-11.75,7.22-13.65,14.53-.53,2-1,4-1.41,6-.81,4.25-.12,5,4.1,4.23C451.39,674.62,463.9,672.16,476.42,669.73Zm160.49-27.64c-1.14.58-3.78.16-2.46,3A10.29,10.29,0,0,0,645.52,651c2.71-.36,3.77-2.52,2.37-4.83C645.22,641.73,642.67,640.76,636.91,642.09ZM522.65,666.41c5,1.49,10,.3,11.57-2.63C528.36,662.28,525,662.2,522.65,666.41ZM540.17,662c3.48,2.76,9.58,1.79,11.93-1.56C547.73,657.24,544.22,660.15,540.17,662Z" transform="translate(-409.64 -549.37)"/><path class="cls-1" d="M475.79,728.79a17.57,17.57,0,1,1,12.84-21.33A17.5,17.5,0,0,1,475.79,728.79ZM482.4,709a11.18,11.18,0,1,0-8.17,13.68A11,11,0,0,0,482.4,709Z" transform="translate(-409.64 -549.37)"/><path class="cls-1" d="M601.58,680.15A17.61,17.61,0,1,1,622.89,693,17.56,17.56,0,0,1,601.58,680.15Zm6.22-1.47a11.21,11.21,0,1,0,8.05-13.51A11.05,11.05,0,0,0,607.8,678.68Z" transform="translate(-409.64 -549.37)"/><path class="cls-1" d="M535.64,549.37a126,126,0,1,0,126,126A126,126,0,0,0,535.64,549.37ZM618.8,759.24a89,89,0,0,1-38.23,24.57A89.45,89.45,0,0,1,534.79,794a118.26,118.26,0,0,1-60-16.22l-24.05-18.58a118.68,118.68,0,0,1-30.55-52.42Q418.12,691,416,675.23a89.43,89.43,0,0,1,10.23-45.77,89.05,89.05,0,0,1,24.56-38.23A89,89,0,0,1,489,566.66a89.41,89.41,0,0,1,45.77-10.23,118.2,118.2,0,0,1,60,16.22l24,18.58a118.63,118.63,0,0,1,30.55,52.42q2.13,15.79,4.25,31.58A89.65,89.65,0,0,1,643.37,721,89.07,89.07,0,0,1,618.8,759.24Z" transform="translate(-409.64 -549.37)"/></svg>