<svg width="245" height="251" viewBox="0 0 245 251" fill="none" xmlns="http://www.w3.org/2000/svg">
<path d="M122.478 0.401369C98.2541 0.397141 74.5729 7.5777 54.4303 21.0347C34.2876 34.4916 18.5887 53.6204 9.31949 76.0011C0.0502445 98.3818 -2.37287 123.009 2.35669 146.767C7.08625 170.525 18.7559 192.347 35.8895 209.471C53.0232 226.596 74.851 238.254 98.6115 242.971C122.372 247.688 146.998 245.252 169.374 235.971C191.75 226.69 210.87 210.981 224.316 190.832C237.763 170.682 244.931 146.997 244.914 122.773C244.891 90.3137 231.983 59.1915 209.025 36.2454C186.066 13.2994 154.937 0.407034 122.478 0.401369V0.401369ZM203.289 204.354C193.171 215.385 180.373 223.613 166.137 228.237C152.45 235.437 137.093 238.864 121.644 238.167C101.162 238.203 81.0434 232.765 63.3686 222.416L39.9986 204.354C25.8626 190.231 15.6347 172.68 10.3153 153.419C8.88861 143.161 7.51182 132.924 6.18495 122.708C5.85102 99.9826 12.4715 77.6977 25.1591 58.8403C37.8467 39.9829 55.9953 25.4541 77.1723 17.2012C90.8412 9.96769 106.194 6.51733 121.644 7.2069C142.125 7.17166 162.244 12.6096 179.919 22.9581L203.289 41.0206C217.429 55.1405 227.657 72.6921 232.972 91.9551C234.399 102.185 235.776 112.415 237.103 122.644C235.833 153 223.854 181.925 203.289 204.29V204.354Z" fill="#064584"/>
<path d="M159.369 154.878C157.568 148.467 153.928 144.2 148.449 142.077C142.949 139.879 133.786 138.546 120.96 138.08C108.114 137.539 97.7393 136.384 89.8375 134.616C68.2931 129.764 55.1162 118.777 50.3068 101.655C47.8068 92.7551 48.0712 84.1363 51.1 75.7989C54.1831 67.3648 59.8502 59.8732 68.1012 53.324C76.4276 46.7535 86.4362 41.8263 98.127 38.5424C109.893 35.2372 120.981 34.4419 131.391 36.1563C141.779 37.7953 150.591 41.7894 157.827 48.1387C165.138 54.4668 170.181 62.5711 172.957 72.4518L139.015 81.9858C136.897 74.4433 132.879 69.2653 126.962 66.4517C121.024 63.5627 113.755 63.3258 105.157 65.7411C96.8601 68.0716 90.9091 71.6556 87.304 76.493C83.6777 81.2549 82.6696 86.502 84.2798 92.2343C85.7841 97.5895 89.7223 101.325 96.0944 103.441C102.542 105.536 111.453 106.695 122.827 106.918C143.767 107.302 159.857 110.554 171.097 116.673C182.337 122.793 189.758 132.264 193.359 145.086C197.364 159.341 195.117 172.057 186.62 183.232C178.101 194.332 164.715 202.446 146.462 207.573C133.791 211.133 121.605 212.074 109.904 210.397C98.1813 208.644 88.4337 204.506 80.6607 197.982C72.9631 191.437 67.6207 182.847 64.6333 172.212L98.6877 162.646C103.794 180.824 117.208 186.862 138.93 180.76C147.001 178.493 152.843 175.102 156.458 170.588C160.051 165.998 161.021 160.761 159.369 154.878Z" fill="#064584"/>
<line x1="89.5353" y1="23.6626" x2="149.458" y2="226.973" stroke="#064584" stroke-width="17.1209"/>
</svg>
