<svg id="Camada_1" data-name="Camada 1" xmlns="http://www.w3.org/2000/svg" viewBox="0 0 134.12 179.99"><defs><style>.cls-1,.cls-2{fill:#064584;}.cls-2{font-size:103.58px;font-family:Arial-Black, Arial Black;font-weight:800;letter-spacing:-0.08em;}</style></defs><path class="cls-1" d="M599.92,858.82A57.22,57.22,0,1,0,657.13,916,57.22,57.22,0,0,0,599.92,858.82Zm37.76,95.3a40.56,40.56,0,0,1-17.36,11.16,40.72,40.72,0,0,1-20.79,4.64,53.71,53.71,0,0,1-27.23-7.36l-10.92-8.44a53.94,53.94,0,0,1-13.87-23.8q-1-7.19-1.93-14.35a52.09,52.09,0,0,1,33.17-49.3A40.56,40.56,0,0,1,599.53,862a53.71,53.71,0,0,1,27.23,7.36l10.92,8.44a53.89,53.89,0,0,1,13.87,23.8q1,7.17,1.93,14.34a60.07,60.07,0,0,1-15.8,38.15Z" transform="translate(-542.7 -808.61)"/><text class="cls-2" transform="translate(32.83 149.41) rotate(-15.69)">$</text><path class="cls-1" d="M621.65,828.08H641V808.61h16.33v19.47h19.47v16.34H657.35v19.37H641V844.42H621.65Z" transform="translate(-542.7 -808.61)"/></svg>