<svg width="250" height="128" viewBox="0 0 250 128" fill="none" xmlns="http://www.w3.org/2000/svg">
<g clip-path="url(#clip0)">
<path d="M122.73 127.24C104.08 127.24 85.43 127.14 66.73 127.32C62.95 127.32 62.1 126.13 62.39 122.58C65.18 87.32 96.55 60.86 131.18 65.67C156.31 69.17 176.45 89.12 181.61 111.36C182.47 115.03 183.09 118.75 183.61 122.47C184.24 126.76 183.8 127.18 179.4 127.24H122.73Z" fill="#E9F1F7"/>
<path d="M220.32 126.77C211.84 126.77 203.32 126.7 194.88 126.77C192.07 126.77 190.98 125.72 190.81 122.9C189.995 108.082 184.43 93.9198 174.94 82.51C172.68 79.74 172.75 78.51 176.1 76.77C198.89 65.02 226.75 73.12 240.88 95.71C245.79 103.737 248.785 112.788 249.63 122.16C249.99 125.53 248.92 126.9 245.37 126.82C237.03 126.64 228.67 126.76 220.37 126.76L220.32 126.77Z" fill="#E9F1F7"/>
<path d="M91.73 31.2C91.73 11.62 107.22 -2.23994 126.14 0.300063C138.66 1.99006 148.92 12.93 150.72 27.59C153.15 47.47 137.85 63.5901 119.59 62.8501C104.3 62.1901 91.67 47.99 91.73 31.2Z" fill="#E9F1F7"/>
<path d="M27.44 127.22C19.62 127.22 11.8 127.13 3.99 127.22C0.989996 127.22 -0.190004 126.49 -0.010004 123.22C1.45 101.07 15.7 81.63 36.39 74.56C48.3 70.49 60.18 71.27 71.73 76.56C73.93 77.56 74.65 78.43 72.84 80.5C62.4694 92.1701 56.3205 106.986 55.38 122.57C55.14 126.22 53.74 127.44 50.07 127.32C42.52 127.05 34.96 127.24 27.41 127.24L27.44 127.22Z" fill="#E9F1F7"/>
<path d="M171.73 41.97C171.79 32.19 174.98 24.43 182.39 18.63C186.782 15.0721 192.331 13.2564 197.977 13.5293C203.623 13.8023 208.971 16.145 213 20.11C224.25 30.89 225 49.5 214.69 61.11C202.31 75.04 180.11 70.37 173.69 52.47C173.032 50.7777 172.523 49.031 172.17 47.25C171.93 45.499 171.783 43.7365 171.73 41.97Z" fill="#E9F1F7"/>
<path d="M75.54 42.1C75.04 50.54 72.29 57.75 66.17 63.55C63.7762 65.8219 60.9311 67.5645 57.8197 68.6647C54.7082 69.7649 51.4001 70.198 48.1103 69.9358C44.8205 69.6736 41.6227 68.722 38.7248 67.1428C35.8269 65.5637 33.2937 63.3924 31.29 60.77C23.1 50.17 22.52 35.99 30.17 25.07C35.77 17.07 43.61 13.07 53.44 14.53C63.52 16.08 69.94 22.47 73.32 31.84C74.5 35.13 74.82 38.68 75.54 42.1Z" fill="#E9F1F7"/>
</g>
<defs>
<clipPath id="clip0">
<rect width="249.7" height="127.35" fill="white"/>
</clipPath>
</defs>
</svg>
