<svg id="Camada_1" data-name="Camada 1" xmlns="http://www.w3.org/2000/svg" viewBox="0 0 249.7 127.35"><defs><style>.cls-1{fill:#064584;}</style></defs><path class="cls-1" d="M770,892.47c-18.65,0-37.3-.1-56,.08-3.78,0-4.63-1.19-4.34-4.74,2.79-35.26,34.16-61.72,68.79-56.91,25.13,3.5,45.27,23.45,50.43,45.69.86,3.67,1.48,7.39,2,11.11.63,4.29.19,4.71-4.21,4.77H770Z" transform="translate(-647.27 -765.23)"/><path class="cls-1" d="M867.59,892c-8.48,0-17-.07-25.44,0-2.81,0-3.9-1.05-4.07-3.87a69.1,69.1,0,0,0-15.87-40.39c-2.26-2.77-2.19-4,1.16-5.74,22.79-11.75,50.65-3.65,64.78,18.94a61.23,61.23,0,0,1,8.75,26.45c.36,3.37-.71,4.74-4.26,4.66-8.34-.18-16.7-.06-25-.06Z" transform="translate(-647.27 -765.23)"/><path class="cls-1" d="M739,796.43c0-19.58,15.49-33.44,34.41-30.9,12.52,1.69,22.78,12.63,24.58,27.29,2.43,19.88-12.87,36-31.13,35.26C751.57,827.42,738.94,813.22,739,796.43Z" transform="translate(-647.27 -765.23)"/><path class="cls-1" d="M674.71,892.45c-7.82,0-15.64-.09-23.45,0-3,0-4.18-.73-4-4,1.46-22.15,15.71-41.59,36.4-48.66,11.91-4.07,23.79-3.29,35.34,2,2.2,1,2.92,1.87,1.11,3.94a69.65,69.65,0,0,0-17.46,42.07c-.24,3.65-1.64,4.87-5.31,4.75-7.55-.27-15.11-.08-22.66-.08Z" transform="translate(-647.27 -765.23)"/><path class="cls-1" d="M819,807.2c.06-9.78,3.25-17.54,10.66-23.34a23,23,0,0,1,30.61,1.48c11.25,10.78,12,29.39,1.69,41-12.38,13.93-34.58,9.26-41-8.64a31.12,31.12,0,0,1-1.52-5.22A50.07,50.07,0,0,1,819,807.2Z" transform="translate(-647.27 -765.23)"/><path class="cls-1" d="M722.81,807.33c-.5,8.44-3.25,15.65-9.37,21.45A23.52,23.52,0,0,1,678.56,826c-8.19-10.6-8.77-24.78-1.12-35.7,5.6-8,13.44-12,23.27-10.54,10.08,1.55,16.5,7.94,19.88,17.31C721.77,800.36,722.09,803.91,722.81,807.33Z" transform="translate(-647.27 -765.23)"/></svg>