<svg id="Camada_1" data-name="Camada 1" xmlns="http://www.w3.org/2000/svg" viewBox="0 0 185.76 151.57"><defs><style>.cls-1{fill:#064584;}</style></defs><path class="cls-1" d="M409.31,931.21a217.44,217.44,0,0,1,35.29-.78,193.69,193.69,0,0,1,34.54,5c-.56-.36-1.09-.76-1.67-1.06-10.71-5.6-22.28-7.95-34.2-8.91a126.4,126.4,0,0,0-27,.61c-.48.07-1,.06-1.58.09v-124c1.68,0,3.32,0,5,0,17.25.59,34.07,3.42,50.09,10,5.3,2.16,10.27,5.12,15.42,7.63a2.81,2.81,0,0,0,2.25.18c14.07-8.69,29.53-13.48,45.74-15.86,7.56-1.11,15.25-1.36,22.88-2,.67,0,1.35,0,2.16,0v124c-22.31-2.27-44.07-1.5-64.39,9l.09.56c.39-.07.79-.11,1.18-.21,19.82-5.21,40-6.25,60.34-5,2.22.14,4.43.32,6.65.55,1.11.12,1.65-.22,1.55-1.39,0-.49,0-1,0-1.48q0-57.36,0-114.74c0-.24,0-.48.06-1.27.37.93.54,1.4.75,1.85,1.9,4,3.81,8,5.68,12a5.12,5.12,0,0,1,.52,2.09q0,54.59,0,109.17c0,1.57-.5,2-2,2q-82.14,0-164.28,0c-1.77,0-2.13-.59-2.13-2.22q.06-54.3.07-108.62a7.56,7.56,0,0,1,.86-2.9c1.71-3.76,3.48-7.49,5.21-11.23a4.78,4.78,0,0,1,.94-1.63ZM484.57,934V930.8c0-34.46,0-68.92.07-103.38a5.28,5.28,0,0,0-3.1-5.34C462.44,811.39,441.74,807,420.1,806c-1.78-.08-1.67.89-1.67,2.06q0,55.86,0,111.72c0,.65.08,1.31.13,2C441.58,920.2,463.88,921.44,484.57,934Zm3.74,0c20.73-12.59,43.09-13.79,66-12.15.06-.71.14-1.19.14-1.68q0-56.13,0-112.27c0-1.44-.37-2-1.88-1.85-6.57.68-13.19,1-19.71,2-15.07,2.34-29.42,6.93-42.65,14.73a3.42,3.42,0,0,0-2,3.36q.09,52.71,0,105.42Z" transform="translate(-393.56 -802.1)"/><path class="cls-1" d="M569.5,814.38c3,0,5.94,0,8.82,0,.33,0,.79.63.91,1a7.12,7.12,0,0,1,0,1.85V948h-2.76q-36.81,0-73.62.08a6.65,6.65,0,0,0-3.53,1.13c-8.68,5.94-17.18,5.93-25.89,0a6.7,6.7,0,0,0-3.55-1.11q-36.8-.11-73.61-.08h-2.57c-.06-.81-.15-1.46-.15-2.11q0-64.68,0-129.38c0-1.64.38-2.32,2.15-2.21,2.5.15,5,0,7.55,0-.38,3.4-.74,3.85-3.67,3.72-1.84-.08-2.27.59-2.26,2.33q.06,60.71,0,121.41c0,1.84.45,2.42,2.37,2.42q86.78-.07,173.55,0c1.76,0,2.32-.47,2.31-2.27q-.06-60.8,0-121.6c0-1.59-.29-2.35-2.13-2.28C570.31,818.2,570.26,818.05,569.5,814.38Z" transform="translate(-393.56 -802.1)"/></svg>