<svg width="186" height="152" viewBox="0 0 186 152" fill="none" xmlns="http://www.w3.org/2000/svg">
<g clip-path="url(#clip0)">
<path d="M15.75 129.11C27.4728 127.894 39.275 127.633 51.04 128.33C62.6803 128.954 74.2406 130.627 85.58 133.33C85.02 132.97 84.49 132.57 83.91 132.27C73.2 126.67 61.63 124.32 49.71 123.36C40.714 122.599 31.6624 122.803 22.71 123.97C22.23 124.04 21.71 124.03 21.13 124.06V0.059967C22.81 0.059967 24.45 0.059967 26.13 0.059967C43.38 0.649967 60.2 3.47997 76.22 10.06C81.52 12.22 86.49 15.18 91.64 17.69C91.9822 17.8739 92.3588 17.9849 92.7461 18.0158C93.1334 18.0468 93.5229 17.9971 93.89 17.87C107.96 9.17997 123.42 4.38998 139.63 2.00998C147.19 0.899979 154.88 0.649979 162.51 0.00997925C163.18 0.00997925 163.86 0.00997925 164.67 0.00997925V124.01C142.36 121.74 120.6 122.51 100.28 133.01L100.37 133.57C100.76 133.5 101.16 133.46 101.55 133.36C121.37 128.15 141.55 127.11 161.89 128.36C164.11 128.5 166.32 128.68 168.54 128.91C169.65 129.03 170.19 128.69 170.09 127.52C170.09 127.03 170.09 126.52 170.09 126.04C170.09 87.8 170.09 49.5534 170.09 11.3C170.09 11.06 170.09 10.82 170.15 10.03C170.52 10.96 170.69 11.43 170.9 11.88C172.8 15.88 174.71 19.88 176.58 23.88C176.9 24.5319 177.077 25.2443 177.1 25.97C177.1 62.3633 177.1 98.7533 177.1 135.14C177.1 136.71 176.6 137.14 175.1 137.14C120.34 137.14 65.58 137.14 10.82 137.14C9.05001 137.14 8.69 136.55 8.69 134.92C8.73 98.72 8.75334 62.5134 8.76001 26.3C8.84839 25.2853 9.14089 24.2989 9.62 23.4C11.33 19.64 13.1 15.91 14.83 12.17C15.0323 11.5698 15.3518 11.0157 15.77 10.54L15.75 129.11ZM91.01 131.9V128.7C91.01 94.24 91.01 59.78 91.08 25.32C91.1891 24.2172 90.9483 23.108 90.3919 22.1496C89.8356 21.1912 88.9918 20.4322 87.98 19.98C68.88 9.29001 48.18 4.89999 26.54 3.89999C24.76 3.81999 24.87 4.78999 24.87 5.95999C24.87 43.2 24.87 80.44 24.87 117.68C24.87 118.33 24.95 118.99 25 119.68C48.02 118.1 70.32 119.34 91.01 131.9ZM94.75 131.9C115.48 119.31 137.84 118.11 160.75 119.75C160.81 119.04 160.89 118.56 160.89 118.07C160.89 80.65 160.89 43.2267 160.89 5.80002C160.89 4.36002 160.52 3.79998 159.01 3.94998C152.44 4.62998 145.82 4.94998 139.3 5.94998C124.23 8.28998 109.88 12.88 96.65 20.68C96.0132 20.9685 95.4801 21.4452 95.1225 22.046C94.7649 22.6467 94.6 23.3427 94.65 24.04C94.71 59.18 94.71 94.32 94.65 129.46L94.75 131.9Z" fill="#E9F1F7"/>
<path d="M175.94 12.28C178.94 12.28 181.88 12.28 184.76 12.28C185.09 12.28 185.55 12.91 185.67 13.28C185.75 13.8941 185.75 14.5159 185.67 15.13V145.9H182.91C158.37 145.9 133.83 145.927 109.29 145.98C108.03 146.015 106.806 146.406 105.76 147.11C97.08 153.05 88.58 153.04 79.87 147.11C78.8151 146.412 77.5844 146.028 76.32 146C51.7867 145.927 27.25 145.9 2.70999 145.92H0.140015C0.0800146 145.11 -0.0100098 144.46 -0.0100098 143.81C-0.0100098 100.69 -0.0100098 57.5634 -0.0100098 14.43C-0.0100098 12.79 0.370015 12.11 2.14001 12.22C4.64001 12.37 7.14 12.22 9.69 12.22C9.31 15.62 8.94999 16.07 6.01999 15.94C4.17999 15.86 3.75001 16.53 3.76001 18.27C3.80001 58.7433 3.80001 99.2134 3.76001 139.68C3.76001 141.52 4.21 142.1 6.13 142.1C63.9833 142.053 121.833 142.053 179.68 142.1C181.44 142.1 182 141.63 181.99 139.83C181.95 99.2967 181.95 58.7634 181.99 18.23C181.99 16.64 181.7 15.88 179.86 15.95C176.75 16.1 176.7 15.95 175.94 12.28Z" fill="#E9F1F7"/>
</g>
<defs>
<clipPath id="clip0">
<rect width="185.76" height="151.57" fill="white"/>
</clipPath>
</defs>
</svg>
