<svg id="Camada_1" data-name="Camada 1" xmlns="http://www.w3.org/2000/svg" viewBox="0 0 252 252"><defs><style>.cls-1{fill:#064584;}</style></defs><path class="cls-1" d="M691.51,961.37c-1.7-.74-2.58-.41-3.45,1.23a11.23,11.23,0,0,1-8.81,5.92,3,3,0,0,0-1.81,1.11,23.18,23.18,0,0,1-12.27,9,8.64,8.64,0,0,1-1.69.38c-2.46.27-4-.71-4.41-2.71s.75-3.61,3.23-4.23a16.17,16.17,0,0,0,8-4.77c-3.33-.72-6.25-1.4-9.19-2-7.53-1.49-11.49-7.4-10-15,.63-3.1,1.27-6.2,2-9.27.54-2.32,2.18-3.42,4.2-3s3.12,2.2,2.62,4.61c-.65,3.16-1.33,6.31-2,9.47-.6,2.87.68,5.25,3.52,5.92,5.21,1.24,10.45,2.34,15.7,3.36a4.55,4.55,0,0,0,5.15-3.16c.26-.73.36-1.51.55-2.26.6-2.48,2.3-3.53,4.77-2.92l3.2.81c-1-13.86,1.87-26.8,6.63-39.68-.71-.11-1.3-.24-1.91-.31-1.84-.21-2.7-1.35-3.34-3a10,10,0,0,0-2.42-3.73,4.55,4.55,0,0,1-1.89-3.78c0-.77,0-1.55,0-2.32,0-4.08.44-3.68-3.79-3.69-5.36,0-8,2.33-9,7.57a5.22,5.22,0,0,1-2.07,3,18.45,18.45,0,0,0-7.95,10.6c-.71,2.47-2.5,3.54-4.61,2.89-1.91-.6-2.75-2.53-2.09-4.94a24.55,24.55,0,0,1,8.51-12.85,5.81,5.81,0,0,0,1.78-2.57,15.35,15.35,0,0,1,14.49-10.86c1.48,0,3,0,4.45.06a7.67,7.67,0,0,1,7.26,7.46c0,2.61.15,5,2.31,6.77a5,5,0,0,1,1,1.85c.71,1.65,1.61,1.79,2.77.37,2.46-3,5.29-5.37,9.26-6.25a15.34,15.34,0,0,1,18.13,12.22,13.73,13.73,0,0,0,1.47,4.32c3.63,6.7,7.4,13.31,11,20a2.23,2.23,0,0,0,2.58,1.36c4.42-.45,8.85-.76,13.57-1.14-.43-2.27-.86-4.4-1.23-6.53a3.51,3.51,0,0,1,1.55-3.88,3,3,0,0,1,3.79.1,5.16,5.16,0,0,1,1.46,2.17,20.33,20.33,0,0,1,.67,3.21c.53,2.81,1.12,5.19,4,7.09,4.55,3,4.92,9.59,1.42,13.93a3.2,3.2,0,0,0-.72,3q6,30.2,11.82,60.4l7.11,36.28a12.8,12.8,0,0,1,.27,1.72,3.47,3.47,0,0,1-6.86,1c-.87-4.1-1.66-8.22-2.47-12.34l-10.77-55.07q-2.79-14.25-5.56-28.5c-.18-.94-.42-1.87-.68-3-1.84.15-3.62.28-5.39.45-5,.51-10,1.1-15,1.53-6.66.58-11.64-2.11-14.92-7.94a32.23,32.23,0,0,0-3.5-5.32v2c0,9.36,0,18.73,0,28.09a4.49,4.49,0,0,0,.51,2q6.27,11.89,12.59,23.77a23.77,23.77,0,0,1,2.7,12.9q-1.35,21-2.6,42a10.74,10.74,0,0,1-11.12,10.31,10.55,10.55,0,0,1-10.19-11.18c.69-12.7,1.44-25.4,2.37-38.08A16.05,16.05,0,0,0,714,1007c-2.09-3.33-3.73-6.92-5.77-10.78-.48,1.12-.87,1.93-1.18,2.77q-10.93,30.11-21.86,60.22c-1.89,5.19-7.06,8.22-12,7.13-5.56-1.21-9.33-5.88-8.66-11.33a36.64,36.64,0,0,1,2.34-7.74q11.94-33,23.93-66a15.28,15.28,0,0,0,.84-4.69c.11-4.46,0-8.91,0-13.37C691.61,962.55,691.54,961.92,691.51,961.37ZM715,956.66c0-6.45-.1-12.91.06-19.37a17.61,17.61,0,0,1,1.28-5.78,3.42,3.42,0,0,1,6.09-.54,18.75,18.75,0,0,1,1.07,1.84l8.19,14.71c1.66,3,4.17,4.65,7.59,4.34,7.45-.67,14.89-1.48,22.33-2.27a2.54,2.54,0,0,0,2.12-3.53c-.62-1.64-1.88-2.12-3.56-2-6.43.55-12.86,1-19.29,1.59a4.37,4.37,0,0,1-4.71-2.54c-4.46-8.15-9-16.23-13.5-24.38a10,10,0,0,1-1.11-3.62c-.5-4.42-3.2-7.33-7.66-7.92a8,8,0,0,0-8.28,5.61c-1.78,5.37-3.78,10.68-5.29,16.12a68.79,68.79,0,0,0-2.58,22.22c.31,5.72.64,11.45.86,17.18.12,3.16.1,6.33,0,9.49a14.89,14.89,0,0,1-.73,4.51q-10.57,29.31-21.26,58.56c-1.63,4.49-3.28,9-4.86,13.47a3.59,3.59,0,0,0,2.12,4.9c1.92.69,3.75-.23,4.67-2.33.15-.36.26-.73.39-1.09q6.24-17.19,12.46-34.38c3.83-10.54,7.71-21.06,11.44-31.64,1-2.84,3.14-3,5.51-3.17a3.86,3.86,0,0,1,4,2.37c3.37,6.39,6.85,12.72,10.11,19.17a10.19,10.19,0,0,1,1,4.83c-.45,9.09-1.08,18.18-1.63,27.26-.31,5.09-.65,10.18-.89,15.27a3.52,3.52,0,0,0,3.41,3.91,3.67,3.67,0,0,0,3.79-3.39,11.11,11.11,0,0,0,.09-1.16c.83-13.66,1.63-27.32,2.5-41a17.9,17.9,0,0,0-2.16-9.86c-4.05-7.5-8-15.05-12-22.56a12.8,12.8,0,0,1-1.63-6.46C715.08,968.93,715,962.8,715,956.66Z" transform="translate(-582.29 -835.59)"/><path class="cls-1" d="M722.1,856.47a20.45,20.45,0,0,1,0,40.89c-11,0-20.46-9.17-20.51-20.07A20.48,20.48,0,0,1,722.1,856.47ZM722,890.24a13.37,13.37,0,0,0,13.47-13.31,13.38,13.38,0,1,0-26.76,0A13.33,13.33,0,0,0,722,890.24Z" transform="translate(-582.29 -835.59)"/><path class="cls-1" d="M708.29,835.59a126,126,0,1,0,126,126A126,126,0,0,0,708.29,835.59Zm83.16,209.86A89.07,89.07,0,0,1,753.21,1070a89.43,89.43,0,0,1-45.77,10.23,118.27,118.27,0,0,1-60-16.22l-24-18.58A118.53,118.53,0,0,1,592.88,993q-2.13-15.79-4.25-31.58a89.55,89.55,0,0,1,10.23-45.78,106.91,106.91,0,0,1,62.8-62.8,89.45,89.45,0,0,1,45.78-10.23,118.26,118.26,0,0,1,60,16.22l24.05,18.58A118.78,118.78,0,0,1,822,929.86q2.12,15.79,4.24,31.59A89.43,89.43,0,0,1,816,1007.22,89.05,89.05,0,0,1,791.45,1045.45Z" transform="translate(-582.29 -835.59)"/></svg>