<svg id="Camada_1" data-name="Camada 1" xmlns="http://www.w3.org/2000/svg" viewBox="0 0 252 252"><defs><style>.cls-1{fill:#064584;}</style></defs><path class="cls-1" d="M649.08,897.68a8.5,8.5,0,0,1-.79-.58c-3.21-.47-6.29-1.65-9.51-1.81,0,.07,0,.15.05.23-4.72.38-9.15.69-13.57,1.14a2.23,2.23,0,0,1-2.58-1.36c-3.64-6.69-7.41-13.3-11-20a13.73,13.73,0,0,1-1.47-4.32A15.34,15.34,0,0,0,592,858.76c-4,.88-6.8,3.24-9.26,6.25-1.16,1.42-2.06,1.28-2.77-.37a5,5,0,0,0-1-1.85c-2.16-1.82-2.32-4.16-2.31-6.77a7.67,7.67,0,0,0-7.26-7.46c-1.48-.11-3-.08-4.45-.06a15.35,15.35,0,0,0-14.49,10.86,5.89,5.89,0,0,1-1.78,2.57,24.55,24.55,0,0,0-8.51,12.85c-.66,2.41.18,4.34,2.09,4.94,2.11.65,3.9-.42,4.61-2.89a18.45,18.45,0,0,1,8-10.6,5.22,5.22,0,0,0,2.07-3c1.06-5.24,3.68-7.57,9-7.57,4.23,0,3.76-.39,3.79,3.69,0,.77,0,1.55,0,2.32a4.55,4.55,0,0,0,1.89,3.78,10,10,0,0,1,2.42,3.73c.64,1.67,1.5,2.81,3.34,3,.61.07,1.2.2,1.91.31-4.76,12.88-7.63,25.82-6.63,39.68l-3.2-.81c-2.47-.61-4.17.44-4.77,2.92-.19.75-.29,1.53-.55,2.26a4.55,4.55,0,0,1-5.15,3.16q-7.87-1.53-15.7-3.36c-2.84-.67-4.12-3.05-3.52-5.92.66-3.16,1.34-6.31,2-9.47.5-2.41-.51-4.16-2.62-4.61s-3.66.66-4.2,3c-.72,3.07-1.36,6.17-2,9.27-1.52,7.56,2.44,13.47,10,15,2.94.58,5.86,1.26,9.19,2a16.17,16.17,0,0,1-8,4.77c-2.48.62-3.63,2.15-3.23,4.23s2,3,4.41,2.71a8.8,8.8,0,0,0,1.69-.38,23.18,23.18,0,0,0,12.27-9,3,3,0,0,1,1.81-1.11,11.23,11.23,0,0,0,8.81-5.92c.87-1.64,1.75-2,3.45-1.23,0,.55.1,1.18.1,1.81,0,4.46.08,8.91,0,13.37a15.28,15.28,0,0,1-.84,4.69q-11.92,33-23.93,66a36.64,36.64,0,0,0-2.34,7.74c-.67,5.45,3.1,10.12,8.66,11.33,5,1.09,10.16-1.94,12-7.13q10.95-30.11,21.86-60.22c.31-.84.7-1.65,1.18-2.77,2,3.86,3.68,7.45,5.77,10.78a16.05,16.05,0,0,1,2.29,10.26c-.93,12.68-1.68,25.38-2.37,38.08a10.55,10.55,0,0,0,10.19,11.18A10.74,10.74,0,0,0,617,1014.48q1.26-21,2.6-42a23.77,23.77,0,0,0-2.7-12.9q-6.3-11.88-12.59-23.77a4.49,4.49,0,0,1-.51-2c0-9.36,0-18.73,0-28.09v-2a32.23,32.23,0,0,1,3.5,5.32c3.28,5.83,8.26,8.52,14.92,7.94,5-.43,10-1,15-1.53,1.24-.12,2.48-.22,3.74-.32a4,4,0,0,1,1.12-.53c2.57-.78,5.17-1.46,7.78-2.09a3.73,3.73,0,0,1,.61-1C654,907.27,653.63,900.67,649.08,897.68Zm-5.65,10.16c-7.44.79-14.88,1.6-22.33,2.27-3.43.31-5.93-1.36-7.59-4.34l-8.19-14.71a18.75,18.75,0,0,0-1.07-1.84,3.42,3.42,0,0,0-6.09.54,17.61,17.61,0,0,0-1.28,5.78c-.16,6.46-.06,12.92-.06,19.37,0,6.14.08,12.27,0,18.4a12.8,12.8,0,0,0,1.63,6.46c4,7.51,8,15.06,12,22.56a17.9,17.9,0,0,1,2.16,9.86c-.87,13.66-1.67,27.32-2.5,41a11.11,11.11,0,0,1-.09,1.16,3.67,3.67,0,0,1-3.79,3.39,3.52,3.52,0,0,1-3.41-3.91c.24-5.09.58-10.18.89-15.27.55-9.08,1.18-18.17,1.63-27.26a10.19,10.19,0,0,0-1-4.83c-3.26-6.45-6.74-12.78-10.11-19.17a3.86,3.86,0,0,0-4-2.37c-2.37.18-4.51.33-5.51,3.17-3.73,10.58-7.61,21.1-11.44,31.64Q567,996.9,560.75,1014.1c-.13.36-.24.73-.39,1.09-.92,2.1-2.75,3-4.67,2.33a3.59,3.59,0,0,1-2.12-4.9c1.58-4.5,3.23-9,4.86-13.47q10.65-29.26,21.26-58.56a14.89,14.89,0,0,0,.73-4.51c.11-3.16.13-6.33,0-9.49-.22-5.73-.55-11.46-.86-17.18a68.79,68.79,0,0,1,2.58-22.22c1.51-5.44,3.51-10.75,5.29-16.12a8,8,0,0,1,8.28-5.61c4.46.59,7.16,3.5,7.66,7.92a10,10,0,0,0,1.11,3.62c4.46,8.15,9,16.23,13.5,24.38a4.37,4.37,0,0,0,4.71,2.54c6.43-.57,12.86-1,19.29-1.59,1.68-.14,2.94.34,3.56,2A2.54,2.54,0,0,1,643.43,907.84Z" transform="translate(-466.33 -793.72)"/><path class="cls-1" d="M603.92,814.72a20.45,20.45,0,0,1,0,40.89c-11,0-20.46-9.17-20.51-20.07A20.48,20.48,0,0,1,603.92,814.72Zm-.11,33.77a13.37,13.37,0,0,0,13.47-13.31,13.38,13.38,0,1,0-26.76,0A13.33,13.33,0,0,0,603.81,848.49Z" transform="translate(-466.33 -793.72)"/><path class="cls-1" d="M700.59,895.7c-.34.3-.63.75-1,.9-2.39.93-2.63,2.39-1.16,4.32.81,1.06.89,1.89-.43,2.66-1.9,1.11-2.85,2.47-1.55,4.8.35.61-.53,1.86-.75,2.83a22.17,22.17,0,0,0-.5,3.13c0,.61.47,1.44.21,1.84-1.08,1.67-.7,3,1.23,4.58-5.65,1.65-10.52-1.18-15.68-.78-.28,5.45-4.18,7.51-8.7,8.69-7.07,1.85-14.18,2.26-21.11-.67-2.82-1.19-4.79-2.85-4.9-6.51-.26-8.5-1-17-1.58-25.49-.28-4.4,1.69-7.36,5.74-9.12a31.55,31.55,0,0,1,14-2.86A99.39,99.39,0,0,1,678,885.16a15.08,15.08,0,0,1,7.18,3.41,23.73,23.73,0,0,0,13.29,6.21,11.69,11.69,0,0,1,1.72.43C700.31,895.25,700.38,895.44,700.59,895.7Zm-22.16.59c-2.89,1.16-5.41,2.27-8,3.19-1.88.67-4.26.52-4.25,3-.73-.58-1.49-1.72-2.2-1.68-6,.29-11.89-.3-17.56-3.53.66,8.78,1.25,17.08,1.94,25.38a2.79,2.79,0,0,0,1.3,2c5,2.36,10.31,2.45,15.6,1.79l.31-3.33.54,0,.83,3.5c3.36-1.08,6.63-2,9.8-3.2,1.85-.7,2.4-2.28,2.27-4.32-.31-5.13-.43-10.27-.57-15.4C678.37,901.23,678.43,898.8,678.43,896.29Zm17.25,12.93c-3-3.28-.66-5.33,1.15-7l-1.28-5.5c-6.62.67-9.85-5.44-14.84-8.44V917l12.37,2.24c.3-1.38,1.2-3,.74-3.9C692.47,912.66,693.63,911,695.68,909.22ZM659.4,898.89l.16-.66c.67,0,1.35,0,2-.1,4.81-.49,9.61-1.14,13.72-3.93,1.16-.79,2.71-2.26,2.62-3.3s-1.8-2.45-3.08-2.88a33.45,33.45,0,0,0-8.37-1.74c-6.61-.4-13,.67-18.46,4.75-2.53,1.9-2.54,3.81.31,5C651.83,897.42,655.69,898,659.4,898.89Z" transform="translate(-466.33 -793.72)"/><path class="cls-1" d="M661.11,888.92c2.17.37,3.68.54,5.13.93a2.1,2.1,0,0,1,1.33,1.27,2,2,0,0,1-.81,1.61,14,14,0,0,1-10.14,2c-.59-.11-1.44-.83-1.49-1.32-.06-.78.23-2,.77-2.34A45.14,45.14,0,0,1,661.11,888.92Z" transform="translate(-466.33 -793.72)"/><path class="cls-1" d="M592.33,793.72a126,126,0,1,0,126,126A126,126,0,0,0,592.33,793.72Zm83.16,209.87a89.08,89.08,0,0,1-38.24,24.56,89.41,89.41,0,0,1-45.77,10.23,118.13,118.13,0,0,1-60-16.22l-24-18.57a118.72,118.72,0,0,1-30.55-52.43q-2.13-15.79-4.25-31.58a89.56,89.56,0,0,1,10.24-45.78,106.83,106.83,0,0,1,62.8-62.8,89.49,89.49,0,0,1,45.77-10.23,118.36,118.36,0,0,1,60,16.22l24,18.58A118.68,118.68,0,0,1,706,888q2.13,15.79,4.24,31.59a89.43,89.43,0,0,1-10.23,45.77A89.14,89.14,0,0,1,675.49,1003.59Z" transform="translate(-466.33 -793.72)"/></svg>