<svg width="158" height="162" viewBox="0 0 158 162" fill="none" xmlns="http://www.w3.org/2000/svg">
<g clip-path="url(#clip0)">
<path d="M82.28 161.71C55.86 161.88 33.85 152.48 17.17 131.82C9.61797 122.342 4.36192 111.245 1.81338 99.3972C-0.73517 87.5495 -0.507073 75.2726 2.47976 63.5277C5.46659 51.7828 11.1311 40.8885 19.03 31.6976C26.9288 22.5067 36.8476 15.2687 48.01 10.55C65.51 3.07997 83.48 2.44998 101.82 7.67998C101.92 6.35998 102.01 5.17003 102.11 3.98003C102.21 2.79003 102.32 1.58003 102.45 -0.0199738L121.72 23.24L121.61 23.6L91.91 21.2L91.74 20.91L96.34 17.07C95.34 16.78 94.5 16.51 93.68 16.33C82.3459 13.7046 70.5207 14.1046 59.39 17.49C38.73 23.87 23.95 37.08 15.59 56.99C3.82999 85.05 12.36 117.17 36.25 136.28C45.7947 143.981 57.2797 148.898 69.44 150.49C73.1492 150.837 76.8763 150.954 80.6 150.84C81.55 150.84 81.92 151.03 81.94 152.04C82.01 154.91 82.19 157.78 82.32 160.64C82.38 160.95 82.34 161.23 82.28 161.71Z" fill="#E9F1F7"/>
<path d="M82.72 58.23C82.72 65.68 82.72 73.13 82.72 80.57C82.7072 80.957 82.7764 81.3423 82.9229 81.7008C83.0693 82.0592 83.2898 82.3827 83.5699 82.65C91.7433 91.19 99.9 99.74 108.04 108.3C108.713 108.875 109.177 109.657 109.358 110.524C109.539 111.391 109.427 112.294 109.04 113.09C108.703 113.862 108.12 114.5 107.382 114.905C106.644 115.311 105.792 115.46 104.96 115.33C103.913 115.131 102.947 114.63 102.18 113.89C93.12 104.477 84.1033 95.0233 75.1299 85.53C74.7893 85.1305 74.5984 84.6249 74.59 84.1C74.59 68.04 74.6133 51.9767 74.66 35.91C74.66 33.23 76.43 31.44 78.86 31.49C81.29 31.54 82.86 33.35 82.86 36.01V58.23H82.72Z" fill="#E9F1F7"/>
<path d="M150.02 49.23C152.786 55.0829 154.802 61.2618 156.02 67.62L145.72 69.62C143.97 64.29 142.25 59.07 140.47 53.69L150.02 49.23Z" fill="#E9F1F7"/>
<path d="M144.1 102.87C145.1 97.33 146 91.98 146.98 86.36L157.47 86.86C157.31 88.86 157.31 90.66 156.99 92.44C156.22 96.65 155.29 100.83 154.44 105.02C154.31 105.68 154.07 105.94 153.34 105.71C150.22 104.72 147.08 103.78 144.1 102.87Z" fill="#E9F1F7"/>
<path d="M113.74 141.62L119.13 150.62C113.582 153.966 107.631 156.594 101.42 158.44C100.42 154.99 99.36 151.63 98.42 148.38L113.74 141.62Z" fill="#E9F1F7"/>
<path d="M137.28 118.14L146.28 123.57C142.99 129.057 139.037 134.118 134.51 138.64L127 131.24L137.28 118.14Z" fill="#E9F1F7"/>
</g>
<defs>
<clipPath id="clip0">
<rect width="157.46" height="161.71" fill="white"/>
</clipPath>
</defs>
</svg>
