<svg id="Camada_1" data-name="Camada 1" xmlns="http://www.w3.org/2000/svg" viewBox="0 0 157.46 161.71"><defs><style>.cls-1{fill:#064584;}</style></defs><path class="cls-1" d="M702,953.57c-26.42.17-48.43-9.23-65.11-29.89a78.53,78.53,0,0,1,30.84-121.27c17.5-7.47,35.47-8.1,53.81-2.87.1-1.32.19-2.51.29-3.7s.21-2.4.34-4l19.27,23.26-.11.36-29.7-2.4-.17-.29,4.6-3.84c-1-.29-1.84-.56-2.66-.74a66.37,66.37,0,0,0-34.29,1.16c-20.66,6.38-35.44,19.59-43.8,39.5-11.76,28.06-3.23,60.18,20.66,79.29a66.63,66.63,0,0,0,33.19,14.21,90.16,90.16,0,0,0,11.16.35c.95,0,1.32.19,1.34,1.2.07,2.87.25,5.74.38,8.6C702.1,952.81,702.06,953.09,702,953.57Z" transform="translate(-619.72 -791.86)"/><path class="cls-1" d="M702.44,850.09c0,7.45,0,14.9,0,22.34a2.75,2.75,0,0,0,.85,2.08q12.26,12.81,24.47,25.65a4,4,0,0,1,1,4.79,3.81,3.81,0,0,1-4.08,2.24,5.48,5.48,0,0,1-2.78-1.44q-13.59-14.12-27.05-28.36a2.26,2.26,0,0,1-.54-1.43q0-24.09.07-48.19c0-2.68,1.77-4.47,4.2-4.42s4,1.86,4,4.52v22.22Z" transform="translate(-619.72 -791.86)"/><path class="cls-1" d="M769.74,841.09a76.87,76.87,0,0,1,6,18.39l-10.3,2c-1.75-5.33-3.47-10.55-5.25-15.93Z" transform="translate(-619.72 -791.86)"/><path class="cls-1" d="M763.82,894.73c1-5.54,1.9-10.89,2.88-16.51l10.49.5c-.16,2-.16,3.8-.48,5.58-.77,4.21-1.7,8.39-2.55,12.58-.13.66-.37.92-1.1.69C769.94,896.58,766.8,895.64,763.82,894.73Z" transform="translate(-619.72 -791.86)"/><path class="cls-1" d="M733.46,933.48l5.39,9a76.5,76.5,0,0,1-17.71,7.82c-1-3.45-2.06-6.81-3-10.06Z" transform="translate(-619.72 -791.86)"/><path class="cls-1" d="M757,910l9,5.43a78,78,0,0,1-11.77,15.07l-7.51-7.4Z" transform="translate(-619.72 -791.86)"/></svg>