<svg id="Camada_1" data-name="Camada 1" xmlns="http://www.w3.org/2000/svg" viewBox="0 0 252 252"><defs><style>.cls-1{fill:#064584;}</style></defs><path class="cls-1" d="M910.71,940.85C905.83,927,894,919.49,882.4,912.91c-16.48-9.32-33.93-17-51.17-24.88-6.18-2.83-12.89-5.36-19.87-1.59a13.33,13.33,0,0,1-2.67.61c-6.67,1.86-13.37,3.63-20,5.66a15.29,15.29,0,0,1-2.53.61c-2.88.89-5.8,1.61-8.73,2.25a23.46,23.46,0,0,1-3.68,1.1c-2.53.64-5.15,1-7.66,1.68s-4,.87-4.91.26c-2.2.4-4.4.82-6.59,1.29a3.58,3.58,0,0,1-1.83,1.8q-17.7,4.39-35.48,8.48c-12.37,2.86-24.79,5.51-37.15,8.41-5.45,1.28-7.68,4.77-6.42,10.23q8.87,38.38,18,76.72c1.18,5,4.25,6.9,9.3,6.19,3.37-.48,6.68-1.45,10.06-1.82,3.65-.39,4.6-1.82,4.2-5.6-1.75-16.76,12.35-29,28.79-25.27,8.41,1.89,13.42,7.68,17.27,14.81,1.14,2.09,2.13,3.55,5.09,2.87q40-9.26,80.11-18.2c3.55-.8,4.52-2.34,3.93-6-1.72-10.86,2.44-19.6,11.24-25.88,11.27-8.05,25.53-4.7,32.24,7.19,4.81,8.53,4.81,8.53,14.58,5.51,4.08-1.26,6-4.12,5.1-8.29A83.59,83.59,0,0,0,910.71,940.85Zm-25-22.22c4.68.39,7.35,3.08,9.78,6.64-2.56,2.35-4.86,1.61-7,.23C886.23,924,884.82,921.94,885.74,918.63Zm-199.85,52c-3-13.92-6.32-27.79-9.48-41.68-1-4.64.15-6.74,5.13-7.9,13.9-3.24,27.84-6.28,41.76-9.4q13.79-3.09,27.59-6.18c1.49-.33,3-.56,4.52-.83,1.44,6,2.78,11.52,4.15,17.07,2.39,9.77,4.71,19.56,7.25,29.29.75,2.84.06,3.88-2.8,4.57q-36.68,8.83-73.28,18C687.73,974.31,686.56,973.7,685.89,970.64Zm88,9.58a37.34,37.34,0,0,0-3.69,1.11c-4.13,1.78-6.81.69-9.94-2.86-12.4-14-37.65-11.38-49,4.93A43.62,43.62,0,0,0,706,994.28c-.92,2.72-2.18,4-4.95,4.63-7.58,1.76-7.55,1.89-9.48-5.66-1.14-4.43-2.22-8.88-3.44-13.29-.59-2.13.11-3.09,2.23-3.58,25-5.76,50-11.6,75.08-17.27,1.06-.24,3.3.68,3.53,1.47C770.82,967,772.28,973.44,773.93,980.22Zm50.77-12.61a6.84,6.84,0,0,1-.09,1.28c-6,1.45-11.77,2.92-17.61,4.27-8.42,2-16.9,3.66-25.27,5.81-3.56.91-5,.24-5.81-3.52-4.22-18.32-8.76-36.58-13.19-54.86-1.31-5.43-2.64-10.87-4.1-16.89,1.92-.64,3.93-1.4,6-2,3-.84,6-1.72,9.11-2.27,2.34-.41,4.78-.3,7.16-.51,1.28-.12,2.81-.06,3.76-.73,5.94-4.23,13.3-4.13,19.81-6.6.62-.24,2.49.91,2.67,1.68C813.08,918,818.88,942.82,824.7,967.61Zm81.86-21.18c-2.22.86-4.7,3.76-7.19.23-5.24-7.41-12.75-10.88-21.45-12.47-14-2.56-29.27,5.06-35.21,17.94a88,88,0,0,0-4.19,11.77c-1.4,4.72-5.8,3-8.78,4.13-.37.15-2.3-2.26-2.68-3.7-2.29-8.72-4.34-17.51-6.47-26.27l.56-.14c-3.36-13.82-6.63-27.67-10.12-41.47-1.75-6.94-1.84-6.47,5.33-8.2,4.36-1,7.78-.2,11.54,1.66,17.12,8.46,34.36,16.71,51.46,25.22a6.07,6.07,0,0,1,2.67,4.11c1.2,9.56,4.19,11.91,13.75,10.53,1.1-.15,2.83.19,3.41,1a114.74,114.74,0,0,1,7.91,11.57C907.69,943.3,907.23,946.17,906.56,946.43Z" transform="translate(-665.72 -821.08)"/><path class="cls-1" d="M734.84,982.38c9-2.34,19.52,4,21.75,13.19,2.44,10-4,20.64-14.17,23.32s-20.08-3-22.6-12.87C717.11,995.43,723.54,985.3,734.84,982.38Zm2.93,22.89a5.11,5.11,0,0,0,4-5.86,5.94,5.94,0,0,0-6.36-4.63,5,5,0,0,0-4.07,6.08A5.66,5.66,0,0,0,737.77,1005.27Z" transform="translate(-665.72 -821.08)"/><path class="cls-1" d="M895,961.16c2.22,10.38-4.14,19.22-14.25,21.44-9.55,2.09-19.1-.9-22.14-12.3-2.71-10.15,4.53-21.59,15.34-23.73C884.27,944.52,891.62,949.78,895,961.16Zm-17.64,8.57a5.26,5.26,0,0,0,3.73-6.36c-.59-2.81-3.46-5-6-4.44s-4.22,3.48-3.63,6.44S874.62,970.33,877.35,969.73Z" transform="translate(-665.72 -821.08)"/><path class="cls-1" d="M717.47,953.12c-5.22,1.27-10.4,2.69-15.65,3.76-4.47.9-6.42-.36-7.51-4.7-1.34-5.32-2.47-10.69-3.6-16.06-.76-3.59.35-5.92,4.29-6.92,11.53-2.93,23-6.18,34.52-9.14,5.77-1.48,8.07-.09,9.42,5.63,1.23,5.21,2.14,10.49,3.11,15.75.53,2.85-.57,4.81-3.45,5.71-7,2.18-14,4.41-21,6.63Z" transform="translate(-665.72 -821.08)"/><path class="cls-1" d="M850.06,929.66c-6.48,1.57-13,3.07-19.43,4.75-3.24.85-5.08-.4-5.88-3.39-1.49-5.54-3-11.1-4.25-16.69-.68-3,.35-5,3.64-5.76,5.72-1.36,11.33-3.23,17.09-4.33a12.67,12.67,0,0,1,7.41,1c6.81,3.31,13.39,7.09,20.05,10.71a15.69,15.69,0,0,1,2.95,1.91c2.89,2.6,2.31,5.67-1.44,6.68-6.69,1.79-13.45,3.31-20.18,5Z" transform="translate(-665.72 -821.08)"/><path class="cls-1" d="M830.9,942.11l-1.61,3.32c-.93-.71-2.26-1.25-2.66-2.18-.31-.74.53-2,.86-3Z" transform="translate(-665.72 -821.08)"/><path class="cls-1" d="M791.72,821.08a126,126,0,1,0,126,126A126,126,0,0,0,791.72,821.08ZM874.87,1031a89,89,0,0,1-38.23,24.57,89.45,89.45,0,0,1-45.78,10.23,118.26,118.26,0,0,1-60-16.22l-24-18.58a118.7,118.7,0,0,1-30.56-52.42q-2.12-15.79-4.24-31.59a89.43,89.43,0,0,1,10.23-45.77,106.91,106.91,0,0,1,62.8-62.8,89.43,89.43,0,0,1,45.77-10.23,118.17,118.17,0,0,1,60,16.22l24,18.58a118.65,118.65,0,0,1,30.56,52.42q2.12,15.79,4.24,31.58a89.45,89.45,0,0,1-10.23,45.78A89,89,0,0,1,874.87,1031Z" transform="translate(-665.72 -821.08)"/></svg>