<svg width="240" height="36" viewBox="0 0 240 36" fill="none" xmlns="http://www.w3.org/2000/svg">
<g clip-path="url(#clip0)">
<path d="M109.087 35.6149C108.982 35.6149 108.914 35.6149 108.831 35.4336C108.589 34.9201 108.34 34.4066 108.076 33.9232C108.076 33.9232 106.422 30.5626 106.014 29.7244L104.632 26.8698C104.028 25.6161 103.416 24.3575 102.797 23.0938C102.743 22.9902 102.68 22.8916 102.608 22.7993L102.396 22.4972L101.815 22.618L101.755 22.8446V22.9201C101.724 23.0236 101.704 23.1299 101.694 23.2373V24.5664V35.1391C101.694 35.2449 101.694 35.3581 101.694 35.4714C101.694 35.5846 101.694 35.5544 101.694 35.5771H101.566H93.085C92.9569 35.5888 92.8279 35.5888 92.6998 35.5771C92.7178 35.4544 92.7178 35.3298 92.6998 35.2071V24.2795L92.647 0.944009C92.6394 0.798103 92.6394 0.651891 92.647 0.505985C92.6445 0.465745 92.6445 0.425415 92.647 0.385175H92.7451C93.0623 0.385175 93.387 0.385175 93.7042 0.385175H101.755C101.802 0.381019 101.849 0.392885 101.889 0.418915C101.929 0.444945 101.958 0.483625 101.974 0.528663C102.102 0.808084 102.238 1.08749 102.381 1.35936C102.525 1.63122 102.585 1.78229 102.691 2.0013L103.408 3.51168L104.556 5.89051C104.964 6.73632 105.379 7.58213 105.795 8.42794C106.21 9.27376 106.641 10.1347 107.056 10.9956C107.222 11.343 107.381 11.698 107.539 12.0529C107.637 12.287 107.743 12.5211 107.849 12.7477C107.9 12.8583 107.961 12.9644 108.03 13.0648L108.257 13.4349L108.952 13.2008V0.664592C108.943 0.566588 108.943 0.46806 108.952 0.370056C108.976 0.378125 109.003 0.378125 109.027 0.370056H117.825H118.074C118.11 0.515703 118.125 0.665726 118.12 0.81564V5.90563C118.12 10.0592 118.12 14.2127 118.12 18.3512C118.12 22.3235 118.12 26.3034 118.074 30.2757V35.0485C118.074 35.2297 118.074 35.411 118.074 35.5847H109.087V35.6149Z" fill="black"/>
<path d="M113.407 0.755192H117.75V5.77724C117.75 9.9761 117.75 14.175 117.75 18.3738C117.75 22.4141 117.75 26.4619 117.704 30.5022V35.0711C117.708 35.1264 117.708 35.1819 117.704 35.2372H109.155C108.921 34.7388 108.68 34.2479 108.4 33.7269L108.211 33.3266L107.532 31.9597L106.331 29.4978L105.576 27.9874L104.941 26.6734C104.337 25.4198 103.726 24.1611 103.106 22.8974C103.045 22.7707 102.969 22.6516 102.88 22.5425C102.857 22.5166 102.837 22.4888 102.819 22.4594L102.517 22.0516L102.026 22.1498H101.943L101.475 22.248L101.362 22.7086V22.7615C101.316 22.8983 101.288 23.0404 101.279 23.1844V24C101.279 24.1737 101.279 24.3474 101.279 24.5211V35.0484V35.207H93.1001V34.9578C93.1001 31.3933 93.1001 27.8288 93.1001 24.2643L93.0623 4.84832V0.94399C93.0623 0.883575 93.0623 0.823167 93.0623 0.762751H101.724C101.845 1.01952 101.974 1.27628 102.102 1.51794L102.412 2.15228C102.653 2.65071 102.887 3.14913 103.121 3.66266C103.507 4.46317 103.877 5.26371 104.277 6.06421L105.5 8.57141C105.931 9.43233 106.354 10.3008 106.777 11.1693C106.943 11.5091 107.094 11.8641 107.252 12.2114L107.562 12.9138C107.624 13.0393 107.695 13.1604 107.773 13.2763L107.834 13.3745L108.144 13.8956L108.717 13.7068L108.868 13.6539L109.39 13.4877V0.755192H113.46H113.407ZM113.46 0H109.306C108.71 0 108.642 0.0679562 108.634 0.649454C108.634 0.724973 108.634 0.800522 108.634 0.868489C108.634 4.70486 108.634 8.53871 108.634 12.37V12.9289L108.483 12.9818C108.408 12.8534 108.317 12.7325 108.249 12.5966C107.985 12.0075 107.736 11.411 107.456 10.8295C106.626 9.12274 105.78 7.4311 104.957 5.72437C104.322 4.43299 103.711 3.13404 103.091 1.83511C102.857 1.34424 102.608 0.860911 102.374 0.370037C102.33 0.260246 102.254 0.166552 102.155 0.101682C102.057 0.0368113 101.941 0.00393669 101.823 0.00755929H93.7193C93.3946 0.00755929 93.0699 0.00755929 92.7451 0.00755929C92.4204 0.00755929 92.292 0.113297 92.2694 0.490893C92.2694 0.679691 92.2694 0.876002 92.2694 1.0648L92.3147 24.287C92.3147 27.927 92.3147 31.567 92.3147 35.207C92.3147 35.9169 92.3675 35.9622 93.0699 35.9622H101.536C101.913 35.9622 101.996 35.8565 102.026 35.4865C102.026 35.343 102.026 35.1995 102.026 35.0484V24.5211C102.026 24.0755 102.026 23.6375 102.026 23.1995C102.044 23.0947 102.07 22.9912 102.102 22.8899H102.208C102.29 22.9984 102.366 23.1119 102.434 23.2297C103.053 24.4833 103.665 25.7294 104.269 27.0057C104.73 27.9497 105.183 28.9087 105.651 29.8603C106.271 31.1365 106.905 32.4128 107.532 33.6891C107.841 34.3235 108.151 34.9578 108.453 35.5922C108.496 35.7115 108.575 35.8143 108.679 35.8861C108.784 35.9579 108.908 35.9951 109.035 35.9924H117.583C117.729 36 117.875 36 118.021 35.9924C118.066 35.9934 118.11 35.9856 118.152 35.9695C118.194 35.9533 118.232 35.9291 118.264 35.8983C118.296 35.8674 118.322 35.8305 118.34 35.7897C118.358 35.7488 118.368 35.7048 118.369 35.6601C118.369 35.4713 118.369 35.275 118.369 35.0862C118.369 29.518 118.391 23.9522 118.437 18.3889C118.437 12.5437 118.437 6.69856 118.437 0.853371C118.437 0.709884 118.437 0.558833 118.437 0.415346C118.437 0.317764 118.399 0.223931 118.332 0.153537C118.264 0.0831423 118.172 0.0416536 118.074 0.0377504C117.974 0.0302536 117.873 0.0302536 117.772 0.0377504L113.46 0Z" fill="black"/>
<path d="M178.037 35.6224C177.9 35.6371 177.763 35.6036 177.648 35.5278C177.534 35.4519 177.449 35.3385 177.41 35.2071C176.858 34.0441 176.284 32.8811 175.718 31.7256L174.774 29.7848L172.184 24.4305C171.965 23.9773 171.738 23.5318 171.504 23.0862C171.467 23.0014 171.421 22.9204 171.368 22.8446L171.27 22.7162L170.87 22.1724L170.621 22.8068L170.568 22.9201C170.512 23.0226 170.478 23.1359 170.47 23.2524C170.47 23.4563 170.47 23.6677 170.47 23.8792V35.1542C170.488 35.3148 170.488 35.4769 170.47 35.6375C170.336 35.6267 170.202 35.6267 170.069 35.6375H161.838C161.707 35.6515 161.575 35.6515 161.445 35.6375C161.445 35.6375 161.445 35.5167 161.445 35.3128V33.9308C161.445 32.4808 161.445 31.0384 161.445 29.5884C161.445 22.2857 161.407 0.891134 161.407 0.891134C161.387 0.728158 161.387 0.563262 161.407 0.400287C161.538 0.409277 161.669 0.409277 161.8 0.400287H164.911H169.677H170.303C170.426 0.378471 170.552 0.402605 170.658 0.46809C170.764 0.533575 170.842 0.635792 170.877 0.755205C171.617 2.32097 172.373 3.87918 173.143 5.42985L175.998 11.3052C176.141 11.5997 176.284 11.8943 176.42 12.1888L176.692 12.7703L176.836 13.0498L177.138 13.6312L177.5 13.3216C177.618 13.2235 177.708 13.0972 177.764 12.9546C177.819 12.812 177.838 12.6577 177.818 12.506C177.818 10.9201 177.818 5.61108 177.818 5.61108V0.808074C177.805 0.669889 177.805 0.530913 177.818 0.392727C177.935 0.407736 178.055 0.407736 178.172 0.392727H186.774C186.774 0.392727 186.774 0.475776 186.774 0.558848V4.54628C186.774 7.18946 186.774 9.83263 186.774 12.4834C186.774 17.82 186.756 23.1592 186.721 28.501V35.1693C186.729 35.3001 186.729 35.4312 186.721 35.562H178.037V35.6224Z" fill="black"/>
<path d="M161.709 0.762773H164.775H169.548H170.213C170.265 0.754437 170.319 0.754437 170.371 0.762773V0.762773C170.371 0.762773 170.371 0.762752 170.447 0.883583C171.202 2.44683 171.957 4.02518 172.712 5.55822L173.105 6.37384L174.442 9.11519C174.819 9.87039 175.197 10.6256 175.567 11.4412C175.711 11.7282 175.854 12.0302 175.99 12.3248L176.262 12.9063C176.307 12.9969 176.352 13.095 176.413 13.2008L176.496 13.3518L176.934 14.1976L177.651 13.5784C177.813 13.4434 177.938 13.2709 178.017 13.076C178.096 12.8811 178.126 12.6699 178.104 12.4607V12.4078C178.104 10.8974 178.104 9.38706 178.104 7.92954V5.5809C178.104 3.97989 178.104 2.3789 178.104 0.777891H186.412V4.4783C186.412 7.15168 186.412 9.82506 186.412 12.4984C186.412 17.9358 186.394 23.3707 186.359 28.8031V35.192H178.052C177.885 35.192 177.863 35.192 177.765 34.9956C177.213 33.8251 176.647 32.6696 176.081 31.5142L175.144 29.6413C174.661 28.6596 174.193 27.6703 173.717 26.6885L172.554 24.287C172.335 23.8339 172.108 23.3808 171.874 22.9352C171.813 22.8219 171.739 22.7156 171.655 22.618L171.565 22.5047L170.756 21.4097L170.258 22.6709C170.256 22.7036 170.256 22.7364 170.258 22.7691C170.179 22.9132 170.132 23.0731 170.122 23.2373C170.122 23.4563 170.122 23.6753 170.122 23.8943V26.2278V35.1618V35.2524H161.815V33.9157C161.815 32.4657 161.815 31.0158 161.815 29.5582C161.815 22.3789 161.815 15.197 161.815 8.0126V0.883583C161.811 0.850969 161.811 0.818018 161.815 0.785404H161.853L161.709 0.762773ZM161.853 0.0302124C161.098 0.0302124 161.052 0.0906315 161.06 0.883583C161.06 10.4493 161.072 20.0151 161.098 29.5809C161.098 31.484 161.098 33.3569 161.098 35.3052C161.098 35.9623 161.166 36.0227 161.853 36.0227H169.933C170.741 36.0227 170.779 36.0227 170.779 35.1844V24.1662C170.779 23.8716 170.779 23.5771 170.779 23.2902C170.802 23.1762 170.843 23.0666 170.9 22.9654C170.988 23.0707 171.069 23.1817 171.142 23.2977C171.368 23.7432 171.595 24.1813 171.814 24.6344C172.682 26.4166 173.536 28.2065 174.404 29.9887C175.273 31.771 176.171 33.591 177.04 35.411C177.109 35.6075 177.241 35.7755 177.416 35.8889C177.591 36.0023 177.799 36.0546 178.006 36.0378H186.313C187.069 36.0378 187.069 36.0378 187.069 35.2826C187.069 27.7307 187.094 20.1787 187.144 12.6268C187.144 8.77533 187.144 4.93142 187.144 1.07994V0.687226C187.144 0.234111 187.046 0.166173 186.585 0.151069H178.097C177.342 0.151069 177.342 0.203932 177.342 0.906261C177.342 2.50727 177.342 4.10826 177.342 5.70927C177.342 7.97485 177.342 10.2404 177.342 12.506C177.368 12.6132 177.364 12.7255 177.331 12.8306C177.297 12.9358 177.236 13.0299 177.153 13.1026C177.062 12.9289 176.994 12.8081 176.934 12.6797C176.7 12.1888 176.481 11.6979 176.239 11.1693C175.424 9.47766 174.593 7.79362 173.777 6.10199C172.894 4.28197 172.003 2.45441 171.149 0.626844C171.081 0.442307 170.954 0.28563 170.787 0.181675C170.62 0.0777196 170.423 0.0324178 170.228 0.0528903H169.563H161.762L161.853 0.0302124Z" fill="black"/>
<path d="M53.1882 35.6148C53.075 35.622 52.9615 35.622 52.8483 35.6148C52.8402 35.4765 52.8402 35.3378 52.8483 35.1995C52.8483 35.1995 52.8483 31.4235 52.8483 30.2681C52.8483 29.3468 52.6218 29.1202 51.6929 29.1126H49.7445C48.9893 29.1126 48.7552 29.3694 48.7552 30.1019C48.7552 31.6425 48.7552 33.1856 48.7552 34.7313V35.1693C48.763 35.3076 48.763 35.4463 48.7552 35.5846H48.3549H42.6759H39.8364C39.8364 35.5846 39.8364 35.5167 39.8364 35.4563C39.8364 35.2222 39.8364 34.9881 39.8364 34.7615V25.5179V19.5444H39.776V4.99936C39.7596 4.14983 39.9852 3.31318 40.4264 2.58707C40.8677 1.86096 41.5065 1.27536 42.2681 0.898674C42.8968 0.55567 43.6065 0.388682 44.3222 0.41534H57.3191C57.8768 0.394473 58.434 0.471134 58.9654 0.641889C59.8367 0.975621 60.5892 1.56092 61.1271 2.32337C61.665 3.08582 61.964 3.99103 61.9861 4.92386C61.9861 7.56703 61.9861 10.2102 61.9861 12.8458C61.9861 18.2681 61.9031 35.1768 61.9031 35.1768C61.9113 35.3051 61.9113 35.4338 61.9031 35.562C61.7748 35.5695 61.6462 35.5695 61.5179 35.562H59.192L53.1882 35.6148ZM49.8653 9.49276C49.0044 9.49276 48.7929 9.71176 48.7778 10.5727V18.8798C48.7696 19.0055 48.7696 19.1317 48.7778 19.2574C48.7685 19.3675 48.7835 19.4783 48.8217 19.582C48.8599 19.6857 48.9203 19.7798 48.9988 19.8576C49.0773 19.9354 49.1719 19.9949 49.276 20.0322C49.38 20.0694 49.491 20.0833 49.601 20.073H51.995C52.0979 20.0792 52.201 20.0642 52.2979 20.029C52.3948 19.9939 52.4835 19.9392 52.5585 19.8685C52.6335 19.7977 52.6932 19.7124 52.734 19.6177C52.7747 19.5229 52.7957 19.4209 52.7955 19.3178C52.7955 19.2121 52.7955 19.0988 52.7955 18.9931V14.4619V10.5727C52.7955 9.75707 52.5538 9.51543 51.7307 9.50788H49.8804L49.8653 9.49276Z" fill="black"/>
<path d="M48.0906 0.79296H57.2134C57.7247 0.775161 58.2354 0.844118 58.7238 0.996877C59.5284 1.29852 60.2248 1.83331 60.7239 2.53284C61.223 3.23238 61.5021 4.06488 61.5255 4.92388C61.5255 7.51419 61.5255 10.0441 61.5255 12.8458C61.5255 18.2832 61.5053 23.7231 61.4651 29.1655V35.2071H59.1164H55.9522H53.2335V33.6967C53.2335 32.5412 53.2335 31.3783 53.2335 30.2228C53.2335 29.0674 52.8408 28.7124 51.7231 28.7124H49.7747C48.8232 28.7124 48.4154 29.1353 48.4078 30.0793C48.4078 31.6577 48.4078 33.2436 48.4078 34.8219V35.1995H46.4368H42.6608H40.1762V32.1334C40.1762 29.9182 40.1762 27.708 40.1762 25.5029V19.1517H40.1158V4.99938C40.0925 4.21917 40.2935 3.44867 40.6951 2.77935C41.0967 2.11002 41.682 1.56999 42.3814 1.22342C42.9565 0.91649 43.6028 0.767926 44.2543 0.79296H48.1208H48.0906ZM50.9604 20.4733H52.0252C52.1779 20.4816 52.3307 20.4583 52.474 20.4049C52.6173 20.3514 52.748 20.2689 52.8579 20.1625C52.9678 20.0562 53.0545 19.9283 53.1126 19.7868C53.1708 19.6453 53.1991 19.4934 53.1958 19.3405C53.1958 19.2196 53.1958 19.0988 53.1958 18.978V14.832V14.0768V10.5576C53.1958 9.53052 52.7879 9.13029 51.7609 9.11519H49.8578C48.7929 9.11519 48.4154 9.50032 48.4003 10.5651V11.6904V18.8949V18.9553C48.4003 19.0761 48.4003 19.1894 48.4003 19.3027C48.3959 19.4592 48.424 19.615 48.4828 19.7601C48.5416 19.9052 48.6298 20.0365 48.7419 20.1458C48.8541 20.255 48.9876 20.3399 49.1342 20.395C49.2808 20.4501 49.4371 20.4741 49.5935 20.4657H50.9377L50.9604 20.4733ZM48.0982 0.0302088H44.2241C43.434 -0.00177657 42.6504 0.183705 41.9585 0.566412C41.1387 0.974888 40.4517 1.60753 39.9771 2.39087C39.5026 3.17422 39.26 4.07612 39.2776 4.99183V19.922H39.338C39.338 21.7873 39.338 23.6526 39.338 25.5179V34.4972C39.338 34.8219 39.338 35.1466 39.338 35.4714C39.338 35.7961 39.4437 35.9623 39.844 35.9623H42.253H42.5702H48.2568C49.012 35.9623 49.012 35.9622 49.012 35.1542C49.012 33.4701 49.012 31.7785 49.012 30.0944C49.012 29.5582 49.095 29.4827 49.6312 29.4752H51.5721C52.3273 29.4752 52.3273 29.5356 52.3273 30.2304C52.3273 31.8767 52.3273 33.5154 52.3273 35.1618C52.3273 35.9169 52.3273 35.9698 53.0825 35.9698H53.1731H58.9881H61.3216C62.0768 35.9698 62.0768 35.917 62.0768 35.2146C62.107 27.7785 62.1347 20.3348 62.1599 12.8836C62.1599 10.2404 62.1599 7.59725 62.1599 4.95408C62.1647 4.29532 62.0352 3.64249 61.7793 3.03544C61.5235 2.4284 61.1466 1.87987 60.6717 1.42333C60.1967 0.96679 59.6338 0.611831 59.0171 0.380103C58.4004 0.148374 57.743 0.0447172 57.085 0.0755185H48.0906L48.0982 0.0302088ZM50.9377 19.7105H49.6086C49.2688 19.7105 49.1781 19.5897 49.1479 19.2499C49.1479 19.129 49.1479 19.0158 49.1479 18.8949C49.1479 16.1536 49.1479 13.4047 49.1479 10.6633V10.5727C49.1479 9.92324 49.2008 9.87793 49.8578 9.87038H51.708C52.3273 9.87038 52.3952 9.94588 52.3952 10.5576V14.8244V18.8798C52.4028 19.0106 52.4028 19.1417 52.3952 19.2725C52.3952 19.5897 52.2744 19.7105 51.9648 19.7105H50.9377Z" fill="black"/>
<path d="M190.92 35.5771H190.784C190.779 35.5269 190.779 35.4763 190.784 35.4261V17.6337H190.716V0.815648C190.716 0.702369 190.716 0.581522 190.716 0.468243H208.373C209.244 0.450706 210.102 0.690707 210.838 1.15817C211.574 1.62563 212.156 2.29977 212.511 3.0963C212.851 3.80121 213.01 4.58007 212.972 5.36187C212.972 8.66206 212.934 16.8332 212.934 16.8332C212.934 21.5154 212.934 26.1951 212.934 30.8723C212.977 31.9568 212.647 33.0232 211.997 33.893C211.346 34.7606 210.41 35.3725 209.354 35.6224C209.165 35.6558 208.973 35.6709 208.78 35.6677H190.958L190.92 35.5771ZM200.957 9.50035C200.02 9.50035 199.809 9.71933 199.801 10.6482V25.6161C199.801 26.3713 200.043 26.6054 200.783 26.613H202.724C203.683 26.613 203.872 26.4242 203.872 25.4802V17.7093H203.819V10.6029C203.819 9.73443 203.592 9.50791 202.709 9.50035H200.987H200.957Z" fill="black"/>
<path d="M199.884 0.800507H208.373C209.171 0.791717 209.954 1.01746 210.625 1.44973C211.297 1.882 211.826 2.5018 212.149 3.23225C212.461 3.87549 212.604 4.58764 212.564 5.30147C212.564 8.60921 212.564 11.9144 212.564 15.2171V15.7986C212.564 20.808 212.564 25.8125 212.564 30.8118C212.602 31.8022 212.298 32.7755 211.703 33.5683C211.105 34.3687 210.244 34.9328 209.271 35.1617C209.112 35.1931 208.95 35.2058 208.788 35.1995H191.154V17.2561H191.086V0.800507H199.884ZM201.493 26.9981H202.694C203.864 26.9981 204.204 26.6432 204.204 25.4877V17.3317H204.151V10.6029C204.151 9.53051 203.751 9.13026 202.641 9.0925H200.919C199.778 9.0925 199.408 9.47765 199.408 10.6029V19.7332C199.408 21.6816 199.408 23.6224 199.408 25.5632C199.408 26.5223 199.816 26.9377 200.76 26.9453H201.515L201.493 26.9981ZM191.003 0.0453145H190.777C190.497 0.0453145 190.414 0.151041 190.384 0.42291C190.373 0.583819 190.373 0.745336 190.384 0.906244V18.0113H190.452V35.3807C190.452 35.8187 190.527 35.9018 190.95 35.9245H208.795C209.016 35.931 209.237 35.9107 209.452 35.8641C210.594 35.5973 211.605 34.9368 212.307 33.9988C213 33.075 213.36 31.9436 213.327 30.7892C213.327 25.5834 213.327 20.3826 213.327 15.1869C213.327 11.8892 213.327 8.58653 213.327 5.27879C213.366 4.43851 213.192 3.60198 212.821 2.84709C212.432 1.99085 211.802 1.26669 211.008 0.763586C210.214 0.260478 209.29 0.000337707 208.35 0.0151234H191.003V0.0453145ZM201.531 26.2429H200.775C200.247 26.2429 200.171 26.1674 200.171 25.6237V16.3801C200.171 14.4695 200.171 12.6041 200.171 10.6558C200.171 9.90056 200.224 9.90056 200.926 9.90056H202.648C203.32 9.90056 203.403 9.96853 203.403 10.6558V18.1397H203.456V25.533C203.456 26.2882 203.456 26.2882 202.701 26.2882L201.531 26.2429Z" fill="black"/>
<path d="M218.19 35.5997C217.828 35.5997 217.435 35.5997 217.11 35.5997H217.035C217.03 35.5672 217.03 35.5341 217.035 35.5016C217.035 35.2448 217.035 34.988 217.035 34.7464V19.4764H216.982V15.7684C216.982 12.0906 216.982 8.4204 216.982 4.74262C216.991 3.73502 217.373 2.76652 218.054 2.0239C218.592 1.33974 219.332 0.842859 220.169 0.604133C220.575 0.495155 220.994 0.43683 221.415 0.430453H232.184C232.939 0.430453 233.694 0.430453 234.449 0.430453H234.54C235.48 0.404737 236.402 0.685738 237.168 1.23095C237.676 1.57788 238.108 2.02463 238.438 2.54397C238.768 3.06331 238.988 3.64436 239.086 4.25172C239.101 4.40491 239.101 4.55919 239.086 4.71238C239.086 13.9157 239.066 23.1214 239.026 32.3298C239.026 33.236 239.026 34.1422 239.026 35.0409V35.4563C239.03 35.504 239.03 35.552 239.026 35.5997H230.183H230.13C230.128 35.5796 230.128 35.5594 230.13 35.5393C230.13 35.4638 230.13 35.3807 230.13 35.2977V30.3436C230.13 29.3618 229.896 29.1353 228.921 29.1353H227.026C226.271 29.1353 226.014 29.3996 226.006 30.1548C226.006 31.1894 226.006 35.0484 226.006 35.0484C226.006 35.2674 226.006 35.426 226.006 35.5771C226.006 35.5771 226.006 35.6148 226.006 35.6299H218.19V35.5997ZM228.295 9.49276H226.867C226.761 9.48103 226.654 9.49185 226.553 9.52452C226.451 9.55718 226.358 9.61096 226.279 9.68229C226.199 9.75362 226.136 9.84089 226.093 9.93839C226.05 10.0359 226.028 10.1414 226.029 10.2479C226.029 10.3235 226.029 10.399 226.029 10.4669V18.9025C226.021 19.0358 226.021 19.1694 226.029 19.3027C226.022 19.4036 226.037 19.5047 226.073 19.5994C226.108 19.694 226.164 19.78 226.235 19.8515C226.307 19.923 226.393 19.9784 226.487 20.014C226.582 20.0496 226.683 20.0646 226.784 20.0579H227.917H229.306C229.407 20.0646 229.509 20.0496 229.603 20.014C229.698 19.9784 229.784 19.923 229.855 19.8515C229.927 19.78 229.982 19.694 230.018 19.5994C230.053 19.5047 230.068 19.4036 230.062 19.3027C230.069 19.1895 230.069 19.076 230.062 18.9628V14.4317C230.062 14.4317 230.062 11.4563 230.062 10.4066C230.062 9.72688 229.797 9.45501 229.125 9.45501L228.295 9.49276Z" fill="black"/>
<path d="M234.532 0.792971C235.394 0.773778 236.238 1.03921 236.934 1.54816C237.401 1.86862 237.799 2.27983 238.104 2.75728C238.409 3.23473 238.614 3.76865 238.709 4.32726C238.721 4.45788 238.721 4.58936 238.709 4.71998C238.709 13.9233 238.689 23.129 238.648 32.3374C238.648 33.2436 238.648 34.1498 238.648 35.0485V35.2373H230.492V30.3436C230.492 29.1655 230.084 28.7653 228.884 28.7653H227.003C226.052 28.7653 225.621 29.2033 225.614 30.1624C225.606 31.1215 225.614 32.2392 225.614 33.2813V35.2675H218.19H217.435V19.0686H217.382V15.8213C217.382 12.1284 217.382 8.43554 217.382 4.74266C217.391 3.82386 217.741 2.94112 218.364 2.2656C218.858 1.64311 219.534 1.18932 220.297 0.966696C220.669 0.866971 221.052 0.813686 221.437 0.808089H232.214C232.969 0.808089 233.724 0.808089 234.48 0.808089H234.563L234.532 0.792971ZM227.94 20.4959H229.337C229.481 20.4979 229.625 20.4713 229.759 20.4177C229.893 20.364 230.015 20.2843 230.118 20.1833C230.221 20.0822 230.303 19.9617 230.36 19.8287C230.416 19.6957 230.446 19.5529 230.447 19.4085C230.454 19.2827 230.454 19.1566 230.447 19.0309V14.8849V14.1297V13.6539C230.447 12.5891 230.447 11.5318 230.447 10.4745C230.475 10.295 230.46 10.1114 230.404 9.93847C230.348 9.76559 230.252 9.60824 230.125 9.47902C229.997 9.34979 229.841 9.25233 229.668 9.19439C229.496 9.13645 229.313 9.11966 229.133 9.14539H228.378H226.95C226.794 9.13143 226.636 9.15084 226.488 9.20227C226.34 9.2537 226.204 9.33603 226.09 9.4438C225.975 9.55157 225.885 9.68234 225.825 9.82748C225.766 9.97262 225.737 10.1288 225.742 10.2857C225.742 10.3764 225.742 10.467 225.742 10.55V10.6105V18.9176V18.9856C225.734 19.134 225.734 19.2827 225.742 19.4311C225.744 19.5752 225.774 19.7175 225.832 19.8497C225.889 19.9819 225.972 20.1014 226.076 20.2011C226.18 20.3009 226.303 20.3791 226.438 20.431C226.572 20.4829 226.716 20.5075 226.86 20.5035H228L227.94 20.4959ZM234.623 0.0604566H234.532C233.777 0.0604566 233.022 0.0604566 232.267 0.0604566H221.4C220.945 0.0660233 220.494 0.129467 220.055 0.249255C219.149 0.501508 218.344 1.02936 217.752 1.75964C217.015 2.5705 216.601 3.624 216.589 4.71998C216.589 9.75711 216.589 14.7942 216.589 19.8238H216.68V34.5349C216.68 34.837 216.68 35.1467 216.68 35.4563C216.68 35.7659 216.763 35.9019 217.118 35.917C217.473 35.9321 217.873 35.917 218.22 35.917H225.931C226.188 35.917 226.286 35.7961 226.316 35.5318C226.331 35.3408 226.331 35.1489 226.316 34.9578C226.316 33.3266 226.316 31.703 226.316 30.0718C226.316 29.5205 226.414 29.4299 226.958 29.4223H228.853C229.609 29.4223 229.677 29.4827 229.684 30.253C229.684 31.8842 229.684 33.513 229.684 35.1391C229.676 35.2573 229.676 35.3759 229.684 35.4941C229.684 35.7659 229.805 35.8566 230.062 35.8943C230.165 35.9017 230.268 35.9017 230.371 35.8943H238.784C239.267 35.8943 239.328 35.8339 239.335 35.3657C239.335 34.3235 239.335 33.2813 239.335 32.2392C239.335 23.0359 239.356 13.8301 239.396 4.6218C239.399 4.44733 239.386 4.27297 239.358 4.10072C239.248 3.44658 239.008 2.82107 238.652 2.26086C238.297 1.70065 237.834 1.21701 237.289 0.83828C236.46 0.246807 235.46 -0.0580696 234.442 -0.0301628L234.623 0.0604566ZM228 19.7483H226.875C226.603 19.7483 226.52 19.635 226.497 19.3556C226.49 19.2097 226.49 19.0635 226.497 18.9176C226.497 16.1536 226.497 13.3971 226.497 10.6105C226.497 10.5198 226.497 10.4368 226.497 10.3462C226.497 9.99878 226.603 9.90814 226.958 9.90058H228.378H229.133C229.609 9.90058 229.699 9.99877 229.699 10.4745C229.699 11.9396 229.699 13.4122 229.699 14.8773V18.9327C229.699 19.0686 229.699 19.197 229.699 19.3329C229.699 19.6048 229.578 19.7256 229.322 19.7332H227.94L228 19.7483Z" fill="black"/>
<path d="M15.9345 35.5847H14.4242H7.0686C6.94022 35.5847 6.8647 35.5847 6.78918 35.3581C6.31593 34.0139 5.8326 32.6747 5.3392 31.3405L4.47074 28.9239L3.42857 26.1221L2.77155 24.2795C2.56765 23.7055 2.36375 23.1315 2.15229 22.5576C1.69918 21.3191 1.23852 20.0806 0.770301 18.8421C0.543106 18.2749 0.422767 17.6707 0.415359 17.0598C0.415359 13.0346 0.415359 9.01703 0.415359 4.97675V0.868503C0.415359 0.740121 0.415359 0.611731 0.415359 0.483348C0.415359 0.354965 0.415359 0.48335 0.415359 0.438038H9.09251C9.25568 0.420781 9.42021 0.420781 9.58338 0.438038C9.57347 0.581354 9.57347 0.725188 9.58338 0.868503C9.58338 5.09758 9.58338 9.32664 9.58338 13.5557V14.2505C9.58338 15.119 9.58338 16.0101 9.58338 16.8861C9.55879 17.7633 9.72902 18.6351 10.0818 19.4386C10.2933 19.9673 10.4896 20.5035 10.686 21.0397L10.9427 21.7345C10.959 21.7887 10.9792 21.8417 11.0031 21.893C11.0209 22.0408 11.0907 22.1774 11.2001 22.2784C11.3094 22.3794 11.451 22.4382 11.5998 22.4443C11.7433 22.4411 11.8813 22.3882 11.9901 22.2945C12.099 22.2009 12.1719 22.0723 12.1963 21.9308L12.5211 21.0246C12.8533 20.1183 13.1856 19.2196 13.5104 18.3059C13.5999 18.0147 13.6457 17.7118 13.6463 17.4072C13.6463 15.5192 13.6463 13.6312 13.6463 11.7432V0.860944C13.6379 0.7201 13.6379 0.578882 13.6463 0.438038C13.7872 0.429317 13.9284 0.429317 14.0692 0.438038H22.5953C22.6037 0.591481 22.6037 0.745251 22.5953 0.898694V8.84333V9.22092V11.343C22.5953 13.3065 22.5953 15.2776 22.5953 17.2411C22.5999 17.7571 22.5077 18.2694 22.3235 18.7514C22.0894 19.3783 21.8552 19.9975 21.6287 20.6167L20.7678 22.8823C20.4582 23.6979 20.1561 24.5135 19.854 25.3291C19.5972 26.0239 19.348 26.7263 19.0988 27.421C18.8496 28.1158 18.6532 28.6822 18.4267 29.309C18.0566 30.3134 17.6715 31.3178 17.309 32.3298L16.6142 34.2026C16.4708 34.5802 16.3273 34.9579 16.1989 35.3581C16.146 35.5016 16.1082 35.5469 15.9194 35.5469L15.9345 35.5847Z" fill="black"/>
<path d="M22.1951 0.80048H22.2555V0.891099C22.2555 2.89236 22.2555 4.90117 22.2555 6.93263V8.49589V11.3656C22.2555 13.3367 22.2555 15.3077 22.2555 17.2712C22.2627 17.7528 22.1808 18.2316 22.0138 18.6834C21.7797 19.2951 21.5456 19.922 21.3115 20.5412L20.9113 21.606L20.4581 22.8294C20.1485 23.645 19.8389 24.4606 19.5368 25.2838C19.2801 25.9786 19.0308 26.6733 18.7816 27.3681C18.5324 28.0629 18.3361 28.6293 18.1095 29.2637C17.7395 30.2756 17.3543 31.2876 16.9843 32.2844L16.4783 33.6513L16.3046 34.112C16.1686 34.4669 16.0327 34.8672 15.8968 35.2221H7.12146C6.64569 33.893 6.16236 32.5563 5.67148 31.2271C5.37696 30.4191 5.07488 29.6035 4.7728 28.7955C4.42541 27.8741 4.08559 26.9528 3.74575 26.0314L3.08874 24.1963C2.88484 23.6224 2.68093 23.0484 2.46948 22.4669C2.03146 21.2737 1.57834 20.0503 1.08746 18.7438C0.875075 18.2206 0.762376 17.6622 0.755175 17.0975C0.755175 13.0422 0.755175 8.91882 0.755175 4.9314V0.83823H9.16803V0.92129C9.16803 5.15037 9.16803 9.37948 9.16803 13.6086V14.2958C9.16803 15.1567 9.16803 16.0553 9.16803 16.9238C9.13601 17.8552 9.31411 18.7818 9.68911 19.635C9.90056 20.1561 10.1045 20.6922 10.2933 21.2209C10.3839 21.455 10.4669 21.6891 10.55 21.9157C10.55 21.9836 10.5953 22.0516 10.618 22.1045C10.6621 22.3209 10.7808 22.515 10.9532 22.653C11.1257 22.791 11.3412 22.8641 11.562 22.8597H11.6148C11.839 22.8498 12.0528 22.7623 12.2195 22.6121C12.3862 22.4619 12.4955 22.2584 12.5286 22.0365L12.8533 21.1529C13.1856 20.2618 13.5104 19.3707 13.8276 18.472C13.9314 18.1395 13.9848 17.7932 13.9861 17.4449C13.9861 15.5418 13.9861 13.6689 13.9861 11.7432V0.80048H22.2932H22.1951ZM22.2932 0.0452881H13.9861C13.1856 0.0452881 13.1706 0.045301 13.1706 0.860908V8.91879C13.1706 11.7583 13.1706 14.5928 13.1706 17.4223C13.1699 17.6787 13.1291 17.9336 13.0497 18.1775C12.6343 19.3631 12.1963 20.5488 11.7583 21.7344C11.713 21.8704 11.7055 22.0516 11.5167 22.0592C11.3128 22.0592 11.3203 21.8552 11.2599 21.7193C11.2403 21.6782 11.2251 21.6352 11.2146 21.5909C10.9276 20.8357 10.6558 20.0806 10.3461 19.3254C10.0132 18.5723 9.85326 17.7543 9.87791 16.9314C9.93077 15.8212 9.87791 14.7036 9.87791 13.5859C9.87791 9.3568 9.87791 5.12773 9.87791 0.898659C9.87791 0.0981553 9.83259 0.0604067 9.02454 0.0604067H0.339829C0.0755117 0.0604067 -0.0151113 0.181206 -0.0377671 0.453075C-0.0604228 0.724944 -0.0377671 0.808025 -0.0377671 0.981719C-0.0377671 6.34358 -0.0377671 11.7054 -0.0377671 17.0673C-0.0322556 17.7246 0.0957991 18.3752 0.339829 18.9855C0.808048 20.2165 1.27626 21.455 1.72182 22.701C2.16738 23.9471 2.56764 25.0799 2.9981 26.258C3.64001 27.995 4.28947 29.7243 4.93139 31.4613C5.43485 32.7954 5.91818 34.1346 6.38136 35.4789C6.41295 35.6179 6.49212 35.7416 6.60519 35.8285C6.71826 35.9153 6.85814 35.96 7.00063 35.9547H15.9119C16.055 35.9711 16.199 35.9339 16.3162 35.8502C16.4334 35.7665 16.5154 35.6422 16.5462 35.5016C16.7275 34.9654 16.939 34.4292 17.1353 33.893C17.6841 32.4229 18.2303 30.9503 18.7741 29.4751C19.2574 28.1536 19.7181 26.8169 20.2014 25.4953C20.6847 24.1737 21.1152 23.0484 21.5758 21.8326C21.9383 20.8508 22.331 19.8767 22.6708 18.9025C22.8703 18.3662 22.9701 17.798 22.9654 17.2259C22.9654 14.5525 22.9654 11.8791 22.9654 9.20577C22.9654 6.43422 22.9654 3.65511 22.9654 0.898659C22.9654 0.0754994 22.9654 0.0528474 22.1498 0.0528474L22.2932 0.0452881Z" fill="black"/>
<path d="M122.545 35.6148C122.419 35.6222 122.293 35.6222 122.167 35.6148C122.16 35.4865 122.16 35.358 122.167 35.2297L122.047 15.2926V0.943967C122.047 0.762721 122.047 0.581497 122.047 0.400251C122.233 0.385626 122.419 0.385626 122.605 0.400251H144.257C144.257 0.400251 144.257 0.475733 144.257 0.551253V8.98678C144.257 9.16803 144.257 9.35681 144.257 9.53806C144.204 9.52705 144.15 9.52705 144.098 9.53806H132.159C131.486 9.53806 131.245 9.81749 131.237 10.4972C131.23 11.1768 131.237 11.8565 131.237 12.5361C131.237 13.2158 131.517 13.4726 132.189 13.4801H140.655C140.79 13.4601 140.927 13.4601 141.062 13.4801C141.048 13.6031 141.048 13.7273 141.062 13.8502C141.062 15.7155 141.062 17.6262 141.025 19.4613V21.9987C141.025 22.1498 141.025 22.3083 141.025 22.4594C141.027 22.4971 141.027 22.5349 141.025 22.5727H132.446C131.411 22.5727 131.199 22.7841 131.199 23.8112C131.199 23.8112 131.199 31.2725 131.199 33.9912C131.199 34.4669 131.199 34.9502 131.199 35.426C131.206 35.4711 131.206 35.5169 131.199 35.562H122.545V35.6148Z" fill="black"/>
<path d="M143.894 0.770329V9.13782H132.136C131.958 9.11854 131.778 9.14035 131.61 9.20152C131.442 9.2627 131.29 9.36161 131.166 9.49071C131.042 9.61981 130.949 9.77566 130.894 9.94621C130.84 10.1168 130.826 10.2975 130.852 10.4745C130.852 11.1693 130.852 11.8565 130.852 12.5211C130.83 12.7004 130.849 12.8824 130.908 13.0531C130.967 13.2239 131.064 13.3787 131.193 13.5058C131.321 13.6328 131.477 13.7286 131.649 13.7857C131.82 13.8428 132.002 13.8597 132.181 13.8351H140.655C140.655 15.7458 140.655 17.6564 140.617 19.567V22.1951H132.446C131.2 22.1951 130.822 22.5727 130.822 23.8112V25.3216V33.9988C130.822 34.3537 130.822 34.754 130.822 35.2071H122.59L122.515 21.3795V15.338V0.989318C122.515 0.928902 122.515 0.860928 122.515 0.792961H143.977L143.894 0.770329ZM144.211 0.0377685H143.154H122.628C122.439 0.0377685 122.243 0.0377685 122.054 0.0377685C122.006 0.037758 121.958 0.0473824 121.914 0.0660698C121.869 0.0847571 121.829 0.11213 121.795 0.146595C121.761 0.181059 121.735 0.221905 121.717 0.26676C121.699 0.311615 121.691 0.35957 121.692 0.407805C121.692 0.599121 121.692 0.787919 121.692 0.974199V15.3228C121.737 23.7357 121.767 29.4752 121.797 35.2146C121.797 35.9698 121.797 35.9698 122.553 35.9698H131.011C131.411 35.9698 131.502 35.8641 131.517 35.4639C131.532 35.0636 131.517 34.4972 131.517 34.0139C131.517 30.6256 131.517 27.2348 131.517 23.8414C131.517 23.0107 131.554 22.9729 132.385 22.9729H140.858C141.236 22.9729 141.334 22.8672 141.357 22.4972C141.357 22.2782 141.357 22.0592 141.357 21.8402C141.357 19.1819 141.357 16.5538 141.402 13.8653C141.402 13.1555 141.364 13.1101 140.647 13.1101H132.189C131.713 13.1101 131.615 13.0044 131.607 12.5362C131.607 11.8641 131.607 11.1844 131.607 10.5123C131.607 10.0214 131.698 9.94591 132.166 9.92325H132.347H144.06H144.279C144.324 9.9253 144.369 9.9182 144.411 9.90242C144.453 9.88664 144.492 9.8625 144.524 9.83143C144.557 9.80037 144.583 9.76302 144.6 9.72169C144.618 9.68036 144.627 9.6359 144.627 9.59097C144.627 9.40217 144.627 9.21336 144.627 9.01701V0.536221C144.627 0.0982097 144.529 0.0151367 144.106 0.0151367L144.211 0.0377685Z" fill="black"/>
<path d="M79.7332 35.5922H79.6123C79.6123 35.5922 79.6123 35.5318 79.6123 35.4865C79.6048 35.3481 79.6048 35.2095 79.6123 35.0711V30.034C79.6123 25.9459 79.5947 21.8603 79.5595 17.7772C79.5595 13.8049 79.5595 9.83011 79.5595 5.85277V1.08751C79.5595 0.876053 79.5595 0.657066 79.5595 0.445612C79.6698 0.431948 79.7814 0.431948 79.8918 0.445612H88.2669C88.4102 0.437225 88.554 0.437225 88.6973 0.445612C88.7059 0.596528 88.7059 0.747794 88.6973 0.898709V17.6564L88.6369 18.034V35.0787C88.6523 35.2571 88.6523 35.4365 88.6369 35.6149H88.146C87.7382 35.6149 87.3304 35.6149 86.9226 35.6149L79.7332 35.5922Z" fill="black"/>
<path d="M86.1976 0.792973H88.297V17.2637H88.2366V35.2146H88.0931C87.6853 35.2146 87.2775 35.2146 86.8697 35.2146H86.0315H81.5003H79.9899V35.041V30.1322C79.9899 26.0189 79.9723 21.9006 79.9371 17.7772C79.9371 13.7495 79.9371 9.74453 79.9371 5.76215V0.792973H86.2656H86.1976ZM86.2656 0.0377808H79.8389H79.4915C79.3947 0.0397572 79.3025 0.0796358 79.2347 0.148819C79.1669 0.218003 79.129 0.31097 79.129 0.407817C79.129 0.626823 79.129 0.853384 79.129 1.07239C79.129 6.63815 79.129 12.1964 79.129 17.7622C79.129 23.5167 79.1819 29.2713 79.2046 35.0258C79.2046 35.1844 79.2046 35.3506 79.2046 35.5092C79.2499 35.8792 79.3405 35.9547 79.7181 35.9547H85.971H86.8395C87.2549 35.9547 87.6702 35.9547 88.0856 35.9547C88.9616 35.9547 88.9616 35.9094 88.9616 35.041V18.0189H89.0522V0.883592C89.0522 0.0528809 89.0522 0.0377808 88.2291 0.0377808H86.2656Z" fill="black"/>
<path d="M27.3984 35.6073H26.764H26.6205C26.6205 35.5696 26.6205 35.5167 26.6205 35.4336L26.545 1.1479V0.657008C26.545 0.566385 26.545 0.513529 26.545 0.475769H26.7413H35.6828C35.6828 0.566392 35.6828 0.709888 35.6828 0.815615C35.6828 3.86659 35.6828 6.91504 35.6828 9.96098V17.5582L35.63 17.9358V31.8314C35.63 32.6394 35.63 33.4474 35.63 34.2479V35.3052C35.63 35.3883 35.63 35.4714 35.63 35.5469H35.5167C35.2826 35.5469 35.0409 35.5469 34.8068 35.5469H27.4512L27.3984 35.6073Z" fill="black"/>
<path d="M35.3128 0.80052C35.3128 3.8666 35.3128 6.93772 35.3128 10.0139V17.1958H35.2599V31.8314C35.2599 32.6394 35.2599 33.4475 35.2599 34.2555V35.2146H34.7992H26.983V35.1391L26.9075 1.21587V0.79296H35.3128V0.80052ZM35.3732 0.0377685H26.7338C26.2354 0.0377685 26.1674 0.120832 26.1523 0.596603V1.21587C26.1523 12.5236 26.1775 23.8314 26.2278 35.1391V35.4034C26.2278 35.849 26.3109 35.9169 26.7338 35.9547C26.9528 35.9547 27.1718 35.9547 27.3984 35.9547H34.7539C35.0333 35.9547 35.3128 35.9547 35.5922 35.9547C35.6405 35.9547 35.6882 35.9451 35.7327 35.9264C35.7772 35.9077 35.8174 35.8803 35.8512 35.8459C35.885 35.8114 35.9115 35.7706 35.9293 35.7257C35.9471 35.6809 35.9557 35.6329 35.9547 35.5847C35.9547 35.494 35.9547 35.411 35.9547 35.3204C35.9547 34.1574 36 33.0019 36 31.8389V17.9509H36.0529V11.7432C36.0529 8.08811 36.0529 4.43049 36.0529 0.770329C36.0529 0.0755521 36.0529 0.0151367 35.3581 0.0151367L35.3732 0.0377685Z" fill="black"/>
<path d="M155.509 35.5998H148.712C148.584 35.6073 148.456 35.6073 148.327 35.5998H148.282C148.285 35.5823 148.285 35.5644 148.282 35.5469C148.282 35.4412 148.282 35.3354 148.282 35.2297V17.5582H148.229V0.943984C148.22 0.772934 148.22 0.601509 148.229 0.430459C148.395 0.421314 148.561 0.421314 148.728 0.430459H157.019C157.155 0.4182 157.292 0.4182 157.427 0.430459C157.413 0.543297 157.413 0.657467 157.427 0.770304V5.35432C157.427 9.73947 157.427 14.1271 157.427 18.5173C157.427 22.404 157.41 26.2932 157.374 30.185V34.988C157.374 35.1768 157.374 35.3581 157.374 35.5393L157.284 35.5846H157.019L155.509 35.5998Z" fill="black"/>
<path d="M153.689 0.79296H157.02V5.42985C157.02 9.79486 157.02 14.1599 157.02 18.5249C157.02 22.467 157.002 26.404 156.967 30.3361V34.9956V35.2297H148.735V17.1958H148.682V0.79296H153.765H153.689ZM153.765 0.0377685H148.712C147.821 0.0377685 147.821 0.0377851 147.821 0.951567V17.9509H147.874V35.124C147.867 35.2699 147.867 35.4161 147.874 35.562C147.874 35.8414 147.972 35.9245 148.252 35.9547C148.395 35.966 148.539 35.966 148.682 35.9547H153.357H156.838C156.954 35.9622 157.07 35.9622 157.186 35.9547C157.238 35.9568 157.29 35.9481 157.338 35.9292C157.387 35.9102 157.431 35.8813 157.468 35.8444C157.505 35.8075 157.534 35.7634 157.553 35.7148C157.572 35.6662 157.58 35.6142 157.578 35.562C157.578 35.3732 157.578 35.1844 157.578 34.9956C157.578 29.5054 157.639 24.0151 157.654 18.5249C157.654 12.6042 157.654 6.686 157.654 0.770329C157.654 0.083104 157.601 0.0151367 156.899 0.0151367L153.765 0.0377685Z" fill="black"/>
</g>
<defs>
<clipPath id="clip0">
<rect width="239.486" height="36" fill="white"/>
</clipPath>
</defs>
</svg>
