<svg width="318" height="48" viewBox="0 0 318 48" fill="none" xmlns="http://www.w3.org/2000/svg">
<g clip-path="url(#clip0)">
<path d="M144.45 47.16C144.31 47.16 144.22 47.16 144.11 46.92C143.79 46.24 143.46 45.56 143.11 44.92C143.11 44.92 140.92 40.47 140.38 39.36L138.55 35.58C137.75 33.92 136.94 32.2534 136.12 30.58C136.048 30.4428 135.965 30.3123 135.87 30.19L135.59 29.79L134.82 29.95L134.74 30.25V30.35C134.7 30.4871 134.673 30.6278 134.66 30.77V32.53V46.53C134.66 46.67 134.66 46.82 134.66 46.97C134.66 47.12 134.66 47.08 134.66 47.11H134.49H123.26C123.09 47.1255 122.92 47.1255 122.75 47.11C122.774 46.9475 122.774 46.7825 122.75 46.62V32.15L122.68 1.25C122.67 1.0568 122.67 0.863187 122.68 0.669983C122.677 0.616699 122.677 0.563294 122.68 0.51001H122.81C123.23 0.51001 123.66 0.51001 124.08 0.51001H134.74C134.803 0.504507 134.865 0.52022 134.918 0.554688C134.971 0.589155 135.01 0.640374 135.03 0.700012C135.2 1.07001 135.38 1.43999 135.57 1.79999C135.76 2.15999 135.84 2.36002 135.98 2.65002L136.93 4.65002L138.45 7.79999C138.99 8.91999 139.54 10.04 140.09 11.16C140.64 12.28 141.21 13.42 141.76 14.56C141.98 15.02 142.19 15.49 142.4 15.96C142.53 16.27 142.67 16.58 142.81 16.88C142.878 17.0265 142.958 17.167 143.05 17.3L143.35 17.79L144.27 17.48V0.880005C144.259 0.750231 144.259 0.619764 144.27 0.48999C144.302 0.500674 144.338 0.500674 144.37 0.48999H156.02H156.35C156.398 0.682852 156.418 0.881507 156.41 1.08002V7.82001C156.41 13.32 156.41 18.82 156.41 24.3C156.41 29.56 156.41 34.83 156.35 40.09V46.41C156.35 46.65 156.35 46.89 156.35 47.12H144.45V47.16Z" fill="#062D54"/>
<path d="M150.17 1H155.92V7.65002C155.92 13.21 155.92 18.77 155.92 24.33C155.92 29.68 155.92 35.04 155.86 40.39V46.44C155.865 46.5133 155.865 46.5867 155.86 46.66H144.54C144.23 46 143.91 45.35 143.54 44.66L143.29 44.13L142.39 42.32L140.8 39.06L139.8 37.06L138.96 35.32C138.16 33.66 137.35 31.9933 136.53 30.32C136.449 30.1522 136.348 29.9945 136.23 29.85C136.2 29.8158 136.173 29.779 136.15 29.74L135.75 29.2L135.1 29.33H134.99L134.37 29.46L134.22 30.07V30.14C134.159 30.3211 134.122 30.5094 134.11 30.7V31.78C134.11 32.01 134.11 32.24 134.11 32.47V46.41V46.62H123.28V46.29C123.28 41.57 123.28 36.85 123.28 32.13L123.23 6.41998V1.25C123.23 1.17 123.23 1.09001 123.23 1.01001H134.7C134.86 1.35001 135.03 1.69001 135.2 2.01001L135.61 2.84998C135.93 3.50998 136.24 4.16998 136.55 4.84998C137.06 5.90998 137.55 6.97003 138.08 8.03003L139.7 11.35C140.27 12.49 140.83 13.64 141.39 14.79C141.61 15.24 141.81 15.71 142.02 16.17L142.43 17.1C142.512 17.2662 142.606 17.4266 142.71 17.58L142.79 17.71L143.2 18.4L143.96 18.15L144.16 18.08L144.85 17.86V1H150.24H150.17ZM150.24 0H144.74C143.95 0 143.86 0.0899854 143.85 0.859985C143.85 0.959985 143.85 1.06002 143.85 1.15002C143.85 6.23002 143.85 11.3067 143.85 16.38V17.12L143.65 17.19C143.55 17.02 143.43 16.86 143.34 16.68C142.99 15.9 142.66 15.11 142.29 14.34C141.19 12.08 140.07 9.84002 138.98 7.58002C138.14 5.87002 137.33 4.14999 136.51 2.42999C136.2 1.77999 135.87 1.13999 135.56 0.48999C135.502 0.34461 135.402 0.220543 135.271 0.134644C135.14 0.0487443 134.986 0.00521284 134.83 0.0100098H124.1C123.67 0.0100098 123.24 0.0100098 122.81 0.0100098C122.38 0.0100098 122.21 0.150024 122.18 0.650024C122.18 0.900024 122.18 1.15997 122.18 1.40997L122.24 32.16C122.24 36.98 122.24 41.8 122.24 46.62C122.24 47.56 122.31 47.62 123.24 47.62H134.45C134.95 47.62 135.06 47.48 135.1 46.99C135.1 46.8 135.1 46.61 135.1 46.41V32.47C135.1 31.88 135.1 31.3 135.1 30.72C135.124 30.5812 135.157 30.4442 135.2 30.31H135.34C135.449 30.4537 135.549 30.604 135.64 30.76C136.46 32.42 137.27 34.07 138.07 35.76C138.68 37.01 139.28 38.28 139.9 39.54C140.72 41.23 141.56 42.92 142.39 44.61C142.8 45.45 143.21 46.29 143.61 47.13C143.667 47.2879 143.771 47.4241 143.91 47.5192C144.048 47.6143 144.212 47.6635 144.38 47.66H155.7C155.893 47.67 156.087 47.67 156.28 47.66C156.339 47.6613 156.398 47.651 156.453 47.6296C156.508 47.6082 156.558 47.5761 156.601 47.5353C156.644 47.4944 156.678 47.4456 156.702 47.3915C156.726 47.3374 156.739 47.2791 156.74 47.22C156.74 46.97 156.74 46.71 156.74 46.46C156.74 39.0867 156.77 31.7166 156.83 24.35C156.83 16.61 156.83 8.87 156.83 1.13C156.83 0.940005 156.83 0.739988 156.83 0.549988C156.83 0.420773 156.78 0.296522 156.691 0.203308C156.601 0.110094 156.479 0.0551563 156.35 0.0499878C156.217 0.0400608 156.083 0.0400608 155.95 0.0499878L150.24 0Z" fill="#062D54"/>
<path d="M235.75 47.17C235.569 47.1894 235.387 47.1451 235.236 47.0447C235.084 46.9442 234.973 46.794 234.92 46.62C234.19 45.08 233.43 43.54 232.68 42.01L231.43 39.44L228 32.35C227.71 31.75 227.41 31.16 227.1 30.57C227.051 30.4576 226.99 30.3504 226.92 30.25L226.79 30.08L226.26 29.36L225.93 30.2L225.86 30.35C225.786 30.4858 225.742 30.6357 225.73 30.79C225.73 31.06 225.73 31.34 225.73 31.62V46.55C225.754 46.7626 225.754 46.9773 225.73 47.19C225.554 47.1757 225.376 47.1757 225.2 47.19H214.3C214.127 47.2085 213.953 47.2085 213.78 47.19C213.78 47.19 213.78 47.03 213.78 46.76V44.93C213.78 43.01 213.78 41.1 213.78 39.18C213.78 29.51 213.73 1.17999 213.73 1.17999C213.703 0.964179 213.703 0.745829 213.73 0.530023C213.903 0.541927 214.077 0.541927 214.25 0.530023H218.37H224.68H225.51C225.672 0.501135 225.84 0.533092 225.98 0.619805C226.12 0.706519 226.223 0.841871 226.27 0.999993C227.25 3.07333 228.25 5.13666 229.27 7.19L233.05 14.97C233.24 15.36 233.43 15.75 233.61 16.14L233.97 16.91L234.16 17.28L234.56 18.05L235.04 17.64C235.196 17.5101 235.316 17.3429 235.389 17.154C235.462 16.9652 235.487 16.7608 235.46 16.56C235.46 14.46 235.46 7.42999 235.46 7.42999V1.07C235.444 0.88702 235.444 0.702993 235.46 0.520013C235.616 0.539886 235.774 0.539886 235.93 0.520013H247.32C247.32 0.520013 247.32 0.629983 247.32 0.739983V6.02001C247.32 9.52001 247.32 13.02 247.32 16.53C247.32 23.5967 247.297 30.6666 247.25 37.74V46.57C247.26 46.7432 247.26 46.9168 247.25 47.09H235.75V47.17Z" fill="#062D54"/>
<path d="M214.13 1.01001H218.19H224.51H225.39C225.46 0.998971 225.53 0.998971 225.6 1.01001C225.6 1.01001 225.6 1.00998 225.7 1.16998C226.7 3.23998 227.7 5.32999 228.7 7.35999L229.22 8.44L230.99 12.07C231.49 13.07 231.99 14.07 232.48 15.15C232.67 15.53 232.86 15.93 233.04 16.32L233.4 17.09C233.46 17.21 233.52 17.34 233.6 17.48L233.71 17.68L234.29 18.8L235.24 17.98C235.454 17.8013 235.62 17.5729 235.725 17.3148C235.829 17.0568 235.869 16.777 235.84 16.5V16.43C235.84 14.43 235.84 12.43 235.84 10.5V7.39001C235.84 5.27001 235.84 3.15003 235.84 1.03003H246.84V5.92999C246.84 9.46999 246.84 13.01 246.84 16.55C246.84 23.75 246.817 30.9467 246.77 38.14V46.6H235.77C235.55 46.6 235.52 46.6 235.39 46.34C234.66 44.79 233.91 43.26 233.16 41.73L231.92 39.25C231.28 37.95 230.66 36.64 230.03 35.34L228.49 32.16C228.2 31.56 227.9 30.96 227.59 30.37C227.509 30.22 227.412 30.0792 227.3 29.95L227.18 29.8L226.11 28.35L225.45 30.02C225.448 30.0633 225.448 30.1067 225.45 30.15C225.345 30.3408 225.283 30.5526 225.27 30.77C225.27 31.06 225.27 31.35 225.27 31.64V34.73V46.56V46.68H214.27V44.91C214.27 42.99 214.27 41.07 214.27 39.14C214.27 29.6333 214.27 20.1233 214.27 10.61V1.16998C214.265 1.1268 214.265 1.08316 214.27 1.03998H214.32L214.13 1.01001ZM214.32 0.039978C213.32 0.039978 213.26 0.119983 213.27 1.16998C213.27 13.8366 213.287 26.5033 213.32 39.17C213.32 41.69 213.32 44.17 213.32 46.75C213.32 47.62 213.41 47.7 214.32 47.7H225.02C226.09 47.7 226.14 47.7 226.14 46.59V32C226.14 31.61 226.14 31.22 226.14 30.84C226.17 30.6892 226.224 30.544 226.3 30.41C226.416 30.5494 226.523 30.6964 226.62 30.85C226.92 31.44 227.22 32.02 227.51 32.62C228.66 34.98 229.79 37.35 230.94 39.71C232.09 42.07 233.28 44.48 234.43 46.89C234.522 47.1502 234.697 47.3727 234.929 47.5229C235.16 47.673 235.435 47.7423 235.71 47.72H246.71C247.71 47.72 247.71 47.72 247.71 46.72C247.71 36.72 247.743 26.72 247.81 16.72C247.81 11.62 247.81 6.52999 247.81 1.42999V0.909973C247.81 0.309973 247.68 0.220012 247.07 0.200012H235.83C234.83 0.200012 234.83 0.270012 234.83 1.20001C234.83 3.32001 234.83 5.44 234.83 7.56C234.83 10.56 234.83 13.56 234.83 16.56C234.864 16.702 234.859 16.8506 234.815 16.9899C234.771 17.1291 234.69 17.2537 234.58 17.35C234.46 17.12 234.37 16.96 234.29 16.79C233.98 16.14 233.69 15.49 233.37 14.79C232.29 12.55 231.19 10.32 230.11 8.08002C228.94 5.67002 227.76 3.25002 226.63 0.830017C226.54 0.585661 226.371 0.378194 226.15 0.24054C225.93 0.102885 225.669 0.0428984 225.41 0.0700073H224.53H214.2L214.32 0.039978Z" fill="#062D54"/>
<path d="M70.43 47.16C70.2802 47.1695 70.1299 47.1695 69.98 47.16C69.9693 46.9768 69.9693 46.7931 69.98 46.61C69.98 46.61 69.98 41.61 69.98 40.08C69.98 38.86 69.68 38.56 68.45 38.55H65.87C64.87 38.55 64.56 38.89 64.56 39.86C64.56 41.9 64.56 43.9433 64.56 45.99V46.57C64.5704 46.7532 64.5704 46.9368 64.56 47.12H64.03H56.51H52.75C52.75 47.12 52.75 47.03 52.75 46.95C52.75 46.64 52.75 46.33 52.75 46.03V33.79V25.88H52.67V6.61998C52.6483 5.49506 52.947 4.3872 53.5313 3.4257C54.1157 2.46421 54.9615 1.68878 55.97 1.18999C56.8026 0.735793 57.7423 0.514672 58.69 0.549972H75.9C76.6386 0.52234 77.3763 0.623852 78.08 0.84996C79.2338 1.29188 80.2302 2.06691 80.9425 3.07652C81.6547 4.08614 82.0506 5.28478 82.08 6.52C82.08 10.02 82.08 13.52 82.08 17.01C82.08 24.19 81.97 46.58 81.97 46.58C81.9808 46.7498 81.9808 46.9202 81.97 47.09C81.8001 47.1 81.6298 47.1 81.46 47.09H78.38L70.43 47.16ZM66.03 12.57C64.89 12.57 64.61 12.86 64.59 14V25C64.579 25.1665 64.579 25.3335 64.59 25.5C64.5776 25.6458 64.5975 25.7925 64.648 25.9299C64.6986 26.0672 64.7786 26.1917 64.8826 26.2947C64.9865 26.3977 65.1118 26.4766 65.2496 26.5259C65.3874 26.5752 65.5343 26.5937 65.68 26.58H68.85C68.9863 26.5882 69.1228 26.5683 69.2511 26.5218C69.3795 26.4752 69.4969 26.4029 69.5962 26.3092C69.6955 26.2155 69.7746 26.1024 69.8286 25.977C69.8825 25.8516 69.9102 25.7165 69.91 25.58C69.91 25.44 69.91 25.29 69.91 25.15V19.15V14C69.91 12.92 69.59 12.6 68.5 12.59H66.05L66.03 12.57Z" fill="#062D54"/>
<path d="M63.68 1.04997H75.76C76.4372 1.0264 77.1134 1.11771 77.76 1.31999C78.8255 1.71942 79.7477 2.42756 80.4085 3.35386C81.0694 4.28017 81.439 5.38254 81.47 6.52C81.47 9.95 81.47 13.3 81.47 17.01C81.47 24.21 81.4433 31.4133 81.39 38.62V46.62H78.28H74.09H70.49V44.62C70.49 43.09 70.49 41.55 70.49 40.02C70.49 38.49 69.97 38.02 68.49 38.02H65.91C64.65 38.02 64.11 38.58 64.1 39.83C64.1 41.92 64.1 44.02 64.1 46.11V46.61H61.49H56.49H53.2V42.55C53.2 39.6166 53.2 36.69 53.2 33.77V25.36H53.12V6.61998C53.0891 5.58685 53.3553 4.56658 53.8871 3.68028C54.4189 2.79398 55.1939 2.07889 56.12 1.61998C56.8816 1.21355 57.7374 1.01682 58.6 1.04997H63.72H63.68ZM67.48 27.11H68.89C69.0922 27.121 69.2945 27.0902 69.4843 27.0194C69.674 26.9486 69.8471 26.8394 69.9926 26.6985C70.1382 26.5577 70.253 26.3883 70.33 26.201C70.407 26.0137 70.4445 25.8124 70.44 25.61C70.44 25.45 70.44 25.29 70.44 25.13V19.64V18.64V13.98C70.44 12.62 69.9 12.09 68.54 12.07H66.02C64.61 12.07 64.11 12.58 64.09 13.99V15.48V25.02V25.1C64.09 25.26 64.09 25.41 64.09 25.56C64.0842 25.7672 64.1214 25.9734 64.1993 26.1656C64.2771 26.3577 64.394 26.5316 64.5425 26.6763C64.6909 26.821 64.8678 26.9334 65.0619 27.0063C65.2559 27.0793 65.463 27.1111 65.67 27.1H67.45L67.48 27.11ZM63.69 0.0399611H58.56C57.5139 -0.00239282 56.4762 0.243216 55.56 0.749983C54.4746 1.29087 53.5648 2.1286 52.9364 3.16588C52.308 4.20316 51.9868 5.39742 52.01 6.60997V26.38H52.09C52.09 28.85 52.09 31.32 52.09 33.79V45.68C52.09 46.11 52.09 46.54 52.09 46.97C52.09 47.4 52.23 47.62 52.76 47.62H55.95H56.37H63.9C64.9 47.62 64.9 47.62 64.9 46.55C64.9 44.32 64.9 42.08 64.9 39.85C64.9 39.14 65.01 39.04 65.72 39.03H68.29C69.29 39.03 69.29 39.11 69.29 40.03C69.29 42.21 69.29 44.38 69.29 46.56C69.29 47.56 69.29 47.63 70.29 47.63H70.41H78.11H81.2C82.2 47.63 82.2 47.56 82.2 46.63C82.24 36.7833 82.2767 26.9266 82.31 17.06C82.31 13.56 82.31 10.06 82.31 6.55998C82.3164 5.68769 82.1449 4.82322 81.8061 4.01939C81.4673 3.21556 80.9683 2.48922 80.3394 1.88469C79.7105 1.28015 78.965 0.810126 78.1485 0.503279C77.3319 0.196432 76.4614 0.0591727 75.59 0.0999587H63.68L63.69 0.0399611ZM67.45 26.1H65.69C65.24 26.1 65.12 25.94 65.08 25.49C65.08 25.33 65.08 25.18 65.08 25.02C65.08 21.39 65.08 17.75 65.08 14.12V14C65.08 13.14 65.15 13.08 66.02 13.07H68.47C69.29 13.07 69.38 13.17 69.38 13.98V19.63V25C69.39 25.1732 69.39 25.3468 69.38 25.52C69.38 25.94 69.22 26.1 68.81 26.1H67.45Z" fill="#062D54"/>
<path d="M252.81 47.11H252.63C252.623 47.0435 252.623 46.9765 252.63 46.91V23.35H252.54V1.08004C252.54 0.930045 252.54 0.770023 252.54 0.620023H275.92C277.074 0.596801 278.21 0.914602 279.185 1.5336C280.16 2.15259 280.93 3.04527 281.4 4.1C281.85 5.03343 282.06 6.06477 282.01 7.1C282.01 11.47 281.96 22.29 281.96 22.29C281.96 28.49 281.96 34.6867 281.96 40.88C282.017 42.3161 281.58 43.7282 280.72 44.88C279.857 46.0288 278.618 46.839 277.22 47.17C276.969 47.2142 276.715 47.2342 276.46 47.23H252.86L252.81 47.11ZM266.1 12.58C264.86 12.58 264.58 12.87 264.57 14.1V33.92C264.57 34.92 264.89 35.23 265.87 35.24H268.44C269.71 35.24 269.96 34.99 269.96 33.74V23.45H269.89V14.04C269.89 12.89 269.59 12.59 268.42 12.58H266.14H266.1Z" fill="#062D54"/>
<path d="M264.68 1.05999H275.92C276.977 1.04836 278.014 1.34728 278.903 1.91967C279.792 2.49207 280.493 3.31279 280.92 4.28003C281.333 5.13178 281.522 6.07478 281.47 7.02002C281.47 11.4 281.47 15.7767 281.47 20.15V20.92C281.47 27.5533 281.47 34.18 281.47 40.8C281.52 42.1114 281.117 43.4001 280.33 44.45C279.538 45.5099 278.398 46.2569 277.11 46.56C276.899 46.6015 276.685 46.6183 276.47 46.61H253.12V22.85H253.03V1.05999H264.68ZM266.81 35.75H268.4C269.95 35.75 270.4 35.28 270.4 33.75V22.95H270.33V14.04C270.33 12.62 269.8 12.09 268.33 12.04H266.05C264.54 12.04 264.05 12.55 264.05 14.04V26.13C264.05 28.71 264.05 31.28 264.05 33.85C264.05 35.12 264.59 35.67 265.84 35.68H266.84L266.81 35.75ZM252.92 0.0599946H252.62C252.25 0.0599946 252.14 0.199995 252.1 0.559995C252.085 0.773065 252.085 0.986939 252.1 1.20001V23.85H252.19V46.85C252.19 47.43 252.29 47.54 252.85 47.57H276.48C276.772 47.5786 277.064 47.5517 277.35 47.49C278.861 47.1367 280.2 46.2622 281.13 45.02C282.048 43.7968 282.524 42.2986 282.48 40.77C282.48 33.8767 282.48 26.99 282.48 20.11C282.48 15.7433 282.48 11.37 282.48 6.98999C282.532 5.87731 282.302 4.76961 281.81 3.77002C281.296 2.63621 280.462 1.6773 279.41 1.01111C278.358 0.344907 277.135 0.000437925 275.89 0.0200166H252.92V0.0599946ZM266.86 34.75H265.86C265.16 34.75 265.06 34.65 265.06 33.93V21.69C265.06 19.16 265.06 16.69 265.06 14.11C265.06 13.11 265.13 13.11 266.06 13.11H268.34C269.23 13.11 269.34 13.2 269.34 14.11V24.02H269.41V33.81C269.41 34.81 269.41 34.81 268.41 34.81L266.86 34.75Z" fill="#062D54"/>
<path d="M288.92 47.14C288.44 47.14 287.92 47.14 287.49 47.14H287.39C287.384 47.0969 287.384 47.0532 287.39 47.01C287.39 46.67 287.39 46.33 287.39 46.01V25.79H287.32V20.88C287.32 16.01 287.32 11.15 287.32 6.28004C287.332 4.94582 287.838 3.66336 288.74 2.68C289.452 1.77407 290.432 1.11611 291.54 0.799997C292.078 0.655693 292.633 0.578461 293.19 0.570017H307.45C308.45 0.570017 309.45 0.570017 310.45 0.570017H310.57C311.814 0.535965 313.036 0.908055 314.05 1.63001C314.723 2.0894 315.295 2.68097 315.732 3.36866C316.168 4.05636 316.46 4.82577 316.59 5.63001C316.61 5.83286 316.61 6.03715 316.59 6.24C316.59 18.4267 316.563 30.6167 316.51 42.81C316.51 44.01 316.51 45.21 316.51 46.4V46.95C316.516 47.0132 316.516 47.0768 316.51 47.14H304.8H304.73C304.728 47.1134 304.728 47.0866 304.73 47.06C304.73 46.96 304.73 46.85 304.73 46.74V40.18C304.73 38.88 304.42 38.58 303.13 38.58H300.62C299.62 38.58 299.28 38.93 299.27 39.93C299.27 41.3 299.27 46.41 299.27 46.41C299.27 46.7 299.27 46.91 299.27 47.11C299.27 47.11 299.27 47.16 299.27 47.18H288.92V47.14ZM302.3 12.57H300.41C300.27 12.5545 300.128 12.5688 299.993 12.6121C299.859 12.6553 299.735 12.7265 299.631 12.821C299.526 12.9154 299.442 13.031 299.385 13.1601C299.328 13.2892 299.299 13.4289 299.3 13.57C299.3 13.67 299.3 13.77 299.3 13.86V25.03C299.29 25.2066 299.29 25.3835 299.3 25.56C299.291 25.6936 299.311 25.8276 299.358 25.9529C299.405 26.0782 299.479 26.1921 299.573 26.2868C299.668 26.3814 299.782 26.4548 299.907 26.5019C300.032 26.549 300.166 26.5688 300.3 26.56H301.8H303.64C303.774 26.5688 303.908 26.549 304.033 26.5019C304.158 26.4548 304.272 26.3814 304.367 26.2868C304.461 26.1921 304.535 26.0782 304.582 25.9529C304.629 25.8276 304.649 25.6936 304.64 25.56C304.65 25.4102 304.65 25.2598 304.64 25.11V19.11C304.64 19.11 304.64 15.17 304.64 13.78C304.64 12.88 304.29 12.52 303.4 12.52L302.3 12.57Z" fill="#062D54"/>
<path d="M310.56 1.05C311.701 1.02458 312.819 1.37605 313.74 2.05C314.359 2.47434 314.885 3.01885 315.289 3.65107C315.693 4.2833 315.965 4.9903 316.09 5.72999C316.106 5.90295 316.106 6.07705 316.09 6.25001C316.09 18.4367 316.063 30.6267 316.01 42.82C316.01 44.02 316.01 45.22 316.01 46.41V46.66H305.21V40.18C305.21 38.62 304.67 38.09 303.08 38.09H300.59C299.33 38.09 298.76 38.67 298.75 39.94C298.74 41.21 298.75 42.69 298.75 44.07V46.7H288.92H287.92V25.25H287.85V20.95C287.85 16.06 287.85 11.17 287.85 6.28004C287.862 5.0634 288.325 3.89451 289.15 3.00001C289.805 2.17572 290.699 1.57483 291.71 1.28004C292.203 1.14799 292.71 1.07743 293.22 1.07002H307.49C308.49 1.07002 309.49 1.07002 310.49 1.07002H310.6L310.56 1.05ZM301.83 27.14H303.68C303.871 27.1427 304.061 27.1074 304.239 27.0364C304.416 26.9653 304.578 26.8598 304.715 26.726C304.851 26.5921 304.96 26.4326 305.035 26.2565C305.11 26.0804 305.149 25.8913 305.15 25.7C305.16 25.5335 305.16 25.3665 305.15 25.2V19.71V18.71V18.08C305.15 16.67 305.15 15.27 305.15 13.87C305.187 13.6322 305.167 13.3891 305.093 13.1602C305.019 12.9312 304.892 12.7229 304.723 12.5518C304.554 12.3807 304.347 12.2516 304.119 12.1749C303.891 12.0982 303.648 12.0759 303.41 12.11H302.41H300.52C300.313 12.0915 300.104 12.1172 299.908 12.1853C299.711 12.2534 299.532 12.3624 299.38 12.5051C299.229 12.6478 299.11 12.821 299.031 13.0132C298.951 13.2054 298.914 13.4122 298.92 13.62C298.92 13.74 298.92 13.86 298.92 13.97V14.05V25.05V25.14C298.91 25.3366 298.91 25.5335 298.92 25.73C298.923 25.9208 298.963 26.1093 299.039 26.2843C299.115 26.4594 299.225 26.6175 299.363 26.7496C299.501 26.8818 299.663 26.9852 299.841 27.054C300.019 27.1227 300.209 27.1554 300.4 27.15H301.91L301.83 27.14ZM310.68 0.0800264H310.56C309.56 0.0800264 308.56 0.0800264 307.56 0.0800264H293.17C292.568 0.0873977 291.97 0.171408 291.39 0.330026C290.19 0.664051 289.124 1.36302 288.34 2.33003C287.364 3.40374 286.815 4.79875 286.8 6.25001C286.8 12.92 286.8 19.59 286.8 26.25H286.92V45.73C286.92 46.13 286.92 46.54 286.92 46.95C286.92 47.36 287.03 47.54 287.5 47.56C287.97 47.58 288.5 47.56 288.96 47.56H299.17C299.51 47.56 299.64 47.4 299.68 47.05C299.7 46.7971 299.7 46.5429 299.68 46.29C299.68 44.13 299.68 41.98 299.68 39.82C299.68 39.09 299.81 38.97 300.53 38.96H303.04C304.04 38.96 304.13 39.04 304.14 40.06C304.14 42.22 304.14 44.3767 304.14 46.53C304.13 46.6865 304.13 46.8435 304.14 47C304.14 47.36 304.3 47.48 304.64 47.53C304.776 47.5398 304.914 47.5398 305.05 47.53H316.19C316.83 47.53 316.91 47.45 316.92 46.83C316.92 45.45 316.92 44.07 316.92 42.69C316.92 30.5033 316.947 18.3133 317 6.12C317.004 5.88898 316.987 5.65809 316.95 5.43C316.804 4.56382 316.486 3.73554 316.016 2.99372C315.545 2.25191 314.931 1.61149 314.21 1.10999C313.112 0.326785 311.788 -0.076922 310.44 -0.0399687L310.68 0.0800264ZM301.91 26.15H300.42C300.06 26.15 299.95 26 299.92 25.63C299.91 25.4368 299.91 25.2432 299.92 25.05C299.92 21.39 299.92 17.74 299.92 14.05C299.92 13.93 299.92 13.82 299.92 13.7C299.92 13.24 300.06 13.12 300.53 13.11H302.41H303.41C304.04 13.11 304.16 13.24 304.16 13.87C304.16 15.81 304.16 17.76 304.16 19.7V25.07C304.16 25.25 304.16 25.42 304.16 25.6C304.16 25.96 304 26.12 303.66 26.13H301.83L301.91 26.15Z" fill="#062D54"/>
<path d="M21.1 47.12H19.1H9.36C9.19 47.12 9.09001 47.12 8.99001 46.82C8.36334 45.04 7.72333 43.2667 7.06999 41.5L5.92 38.3L4.53999 34.59L3.67 32.15C3.4 31.39 3.12999 30.63 2.84999 29.87C2.24999 28.23 1.64 26.59 1.02 24.95C0.719161 24.1991 0.559812 23.3989 0.550003 22.59C0.550003 17.26 0.550003 11.94 0.550003 6.59003V1.15003C0.550003 0.980027 0.550003 0.810018 0.550003 0.640018C0.550003 0.470018 0.550003 0.64002 0.550003 0.58002H12.04C12.2561 0.557168 12.4739 0.557168 12.69 0.58002C12.6769 0.769793 12.6769 0.960254 12.69 1.15003C12.69 6.75003 12.69 12.35 12.69 17.95V18.87C12.69 20.02 12.69 21.2 12.69 22.36C12.6574 23.5216 12.8828 24.676 13.35 25.74C13.63 26.44 13.89 27.15 14.15 27.86L14.49 28.78C14.5116 28.8519 14.5383 28.922 14.57 28.99C14.5936 29.1857 14.686 29.3666 14.8307 29.5003C14.9755 29.6341 15.1631 29.7119 15.36 29.72C15.5501 29.7158 15.7328 29.6457 15.8769 29.5217C16.021 29.3976 16.1176 29.2273 16.15 29.04L16.58 27.84C17.02 26.64 17.46 25.45 17.89 24.24C18.0085 23.8544 18.0692 23.4534 18.07 23.05C18.07 20.55 18.07 18.05 18.07 15.55V1.14002C18.0589 0.953517 18.0589 0.766521 18.07 0.58002C18.2565 0.568471 18.4435 0.568471 18.63 0.58002H29.92C29.931 0.783204 29.931 0.986822 29.92 1.19001V11.71V12.21V15.02C29.92 17.62 29.92 20.23 29.92 22.83C29.926 23.5133 29.8039 24.1917 29.56 24.83C29.25 25.66 28.94 26.48 28.64 27.3L27.5 30.3C27.09 31.38 26.69 32.46 26.29 33.54C25.95 34.46 25.62 35.39 25.29 36.31C24.96 37.23 24.7 37.98 24.4 38.81C23.91 40.14 23.4 41.47 22.92 42.81L22 45.29C21.81 45.79 21.62 46.29 21.45 46.82C21.38 47.01 21.33 47.07 21.08 47.07L21.1 47.12Z" fill="#062D54"/>
<path d="M29.39 1.06H29.47V1.17999C29.47 3.82999 29.47 6.48999 29.47 9.17999V11.25V15.05C29.47 17.66 29.47 20.27 29.47 22.87C29.4796 23.5077 29.3711 24.1417 29.15 24.74C28.84 25.55 28.53 26.38 28.22 27.2L27.69 28.61L27.09 30.23C26.68 31.31 26.27 32.39 25.87 33.48C25.53 34.4 25.2 35.32 24.87 36.24C24.54 37.16 24.28 37.91 23.98 38.75C23.49 40.09 22.98 41.43 22.49 42.75L21.82 44.56L21.59 45.17C21.41 45.64 21.23 46.17 21.05 46.64H9.43001C8.8 44.88 8.15999 43.11 7.50999 41.35C7.11999 40.28 6.71999 39.2 6.31999 38.13C5.85999 36.91 5.41 35.69 4.96 34.47L4.09001 32.04C3.82001 31.28 3.55 30.52 3.27 29.75C2.69 28.17 2.08998 26.55 1.43998 24.82C1.15875 24.1271 1.00952 23.3878 0.999982 22.64C0.999982 17.27 0.999982 11.81 0.999982 6.53003V1.10999H12.14V1.21997C12.14 6.81997 12.14 12.42 12.14 18.02V18.93C12.14 20.07 12.14 21.26 12.14 22.41C12.0976 23.6433 12.3334 24.8703 12.83 26C13.11 26.69 13.38 27.4 13.63 28.1C13.75 28.41 13.86 28.72 13.97 29.02C13.97 29.11 14.03 29.2 14.06 29.27C14.1184 29.5566 14.2755 29.8136 14.5039 29.9963C14.7323 30.1791 15.0176 30.2759 15.31 30.27H15.38C15.6768 30.257 15.9599 30.1411 16.1807 29.9423C16.4014 29.7434 16.5462 29.4739 16.59 29.18L17.02 28.01C17.46 26.83 17.89 25.65 18.31 24.46C18.4475 24.0197 18.5183 23.5613 18.52 23.1C18.52 20.58 18.52 18.1 18.52 15.55V1.06H29.52H29.39ZM29.52 0.0599976H18.52C17.46 0.0599976 17.44 0.0600146 17.44 1.14001V11.81C17.44 15.57 17.44 19.3233 17.44 23.07C17.4391 23.4096 17.3851 23.747 17.28 24.07C16.73 25.64 16.15 27.21 15.57 28.78C15.51 28.96 15.5 29.2 15.25 29.21C14.98 29.21 14.99 28.94 14.91 28.76C14.884 28.7056 14.8639 28.6487 14.85 28.59C14.47 27.59 14.11 26.59 13.7 25.59C13.2592 24.5929 13.0474 23.5097 13.08 22.42C13.15 20.95 13.08 19.47 13.08 17.99C13.08 12.39 13.08 6.79 13.08 1.19C13.08 0.130002 13.02 0.0800171 11.95 0.0800171H0.449994C0.0999941 0.0800171 -0.0200059 0.239976 -0.0500059 0.599976C-0.0800059 0.959976 -0.0500059 1.06999 -0.0500059 1.29999C-0.0500059 8.39999 -0.0500059 15.5 -0.0500059 22.6C-0.0427078 23.4704 0.126858 24.3318 0.449994 25.14C1.06999 26.77 1.68998 28.41 2.27998 30.06C2.86998 31.71 3.39998 33.21 3.96998 34.77C4.81998 37.07 5.67998 39.36 6.52998 41.66C7.19665 43.4266 7.83666 45.2 8.44999 46.98C8.49182 47.1641 8.59666 47.3278 8.74638 47.4429C8.89611 47.5579 9.08132 47.617 9.27 47.61H21.07C21.2595 47.6318 21.4502 47.5825 21.6054 47.4716C21.7606 47.3608 21.8691 47.1963 21.91 47.01C22.15 46.3 22.43 45.59 22.69 44.88C23.4167 42.9333 24.14 40.9834 24.86 39.03C25.5 37.28 26.11 35.51 26.75 33.76C27.39 32.01 27.96 30.52 28.57 28.91C29.05 27.61 29.57 26.32 30.02 25.03C30.2841 24.32 30.4163 23.5676 30.41 22.81C30.41 19.27 30.41 15.73 30.41 12.19C30.41 8.52 30.41 4.84 30.41 1.19C30.41 0.100002 30.41 0.0700073 29.33 0.0700073L29.52 0.0599976Z" fill="#062D54"/>
<path d="M162.27 47.16C162.103 47.1698 161.936 47.1698 161.77 47.16C161.76 46.9901 161.76 46.8199 161.77 46.65L161.61 20.25V1.25C161.61 1.01 161.61 0.770027 161.61 0.530027C161.856 0.510661 162.104 0.510661 162.35 0.530027H191.02C191.02 0.530027 191.02 0.629979 191.02 0.729979V11.9C191.02 12.14 191.02 12.39 191.02 12.63C190.951 12.6154 190.879 12.6154 190.81 12.63H175C174.11 12.63 173.79 13 173.78 13.9C173.77 14.8 173.78 15.7 173.78 16.6C173.78 17.5 174.15 17.84 175.04 17.85H186.25C186.429 17.8234 186.611 17.8234 186.79 17.85C186.771 18.0128 186.771 18.1772 186.79 18.34C186.79 20.81 186.79 23.34 186.74 25.77V29.13C186.74 29.33 186.74 29.54 186.74 29.74C186.743 29.79 186.743 29.84 186.74 29.89H175.38C174.01 29.89 173.73 30.17 173.73 31.53C173.73 31.53 173.73 41.41 173.73 45.01C173.73 45.64 173.73 46.28 173.73 46.91C173.739 46.9697 173.739 47.0303 173.73 47.09H162.27V47.16Z" fill="#062D54"/>
<path d="M190.54 1.02002V12.1H174.97C174.734 12.0744 174.496 12.1033 174.273 12.1843C174.05 12.2653 173.849 12.3963 173.685 12.5673C173.521 12.7382 173.398 12.9446 173.326 13.1704C173.254 13.3962 173.235 13.6356 173.27 13.87C173.27 14.79 173.27 15.7 173.27 16.58C173.24 16.8174 173.265 17.0584 173.344 17.2845C173.422 17.5106 173.551 17.7157 173.721 17.8839C173.891 18.052 174.098 18.1789 174.325 18.2545C174.552 18.3301 174.793 18.3525 175.03 18.32H186.25C186.25 20.85 186.25 23.38 186.2 25.91V29.39H175.38C173.73 29.39 173.23 29.89 173.23 31.53V33.53V45.02C173.23 45.49 173.23 46.02 173.23 46.62H162.33L162.23 28.31V20.31V1.31C162.23 1.23 162.23 1.13999 162.23 1.04999H190.65L190.54 1.02002ZM190.96 0.0499878H189.56H162.38C162.13 0.0499878 161.87 0.0499878 161.62 0.0499878C161.556 0.0499739 161.493 0.0627182 161.434 0.0874634C161.375 0.112209 161.322 0.148455 161.277 0.194092C161.232 0.239728 161.197 0.293815 161.174 0.35321C161.15 0.412606 161.139 0.476107 161.14 0.539978C161.14 0.793311 161.14 1.04331 161.14 1.28998V20.29C161.2 31.43 161.24 39.03 161.28 46.63C161.28 47.63 161.28 47.63 162.28 47.63H173.48C174.01 47.63 174.13 47.49 174.15 46.96C174.17 46.43 174.15 45.68 174.15 45.04C174.15 40.5533 174.15 36.0633 174.15 31.57C174.15 30.47 174.2 30.42 175.3 30.42H186.52C187.02 30.42 187.15 30.28 187.18 29.79C187.18 29.5 187.18 29.21 187.18 28.92C187.18 25.4 187.18 21.92 187.24 18.36C187.24 17.42 187.19 17.36 186.24 17.36H175.04C174.41 17.36 174.28 17.22 174.27 16.6C174.27 15.71 174.27 14.81 174.27 13.92C174.27 13.27 174.39 13.17 175.01 13.14H175.25H190.76H191.05C191.109 13.1427 191.169 13.1333 191.224 13.1124C191.28 13.0915 191.331 13.0596 191.374 13.0184C191.417 12.9773 191.451 12.9278 191.475 12.8731C191.498 12.8184 191.51 12.7595 191.51 12.7C191.51 12.45 191.51 12.2 191.51 11.94V0.710022C191.51 0.130022 191.38 0.0200195 190.82 0.0200195L190.96 0.0499878Z" fill="#062D54"/>
<path d="M105.58 47.13H105.42C105.42 47.13 105.42 47.05 105.42 46.99C105.41 46.8068 105.41 46.6232 105.42 46.44V39.77C105.42 34.3567 105.397 28.9467 105.35 23.54C105.35 18.28 105.35 13.0167 105.35 7.75002V1.44002C105.35 1.16002 105.35 0.870048 105.35 0.590048C105.496 0.571953 105.644 0.571953 105.79 0.590048H116.88C117.07 0.578942 117.26 0.578942 117.45 0.590048C117.461 0.789885 117.461 0.990187 117.45 1.19002V23.38L117.37 23.88V46.45C117.39 46.6863 117.39 46.9238 117.37 47.16H116.72C116.18 47.16 115.64 47.16 115.1 47.16L105.58 47.13Z" fill="#062D54"/>
<path d="M114.14 1.04999H116.92V22.86H116.84V46.63H116.65C116.11 46.63 115.57 46.63 115.03 46.63H113.92H107.92H105.92V46.4V39.9C105.92 34.4534 105.897 29 105.85 23.54C105.85 18.2066 105.85 12.9033 105.85 7.63V1.04999H114.23H114.14ZM114.23 0.0499878H105.72H105.26C105.132 0.052605 105.01 0.105411 104.92 0.197021C104.83 0.288632 104.78 0.411736 104.78 0.539978C104.78 0.829978 104.78 1.12998 104.78 1.41998C104.78 8.78998 104.78 16.15 104.78 23.52C104.78 31.14 104.85 38.76 104.88 46.38C104.88 46.59 104.88 46.81 104.88 47.02C104.94 47.51 105.06 47.61 105.56 47.61H113.84H114.99C115.54 47.61 116.09 47.61 116.64 47.61C117.8 47.61 117.8 47.55 117.8 46.4V23.86H117.92V1.16998C117.92 0.0699829 117.92 0.0499878 116.83 0.0499878H114.23Z" fill="#062D54"/>
<path d="M36.28 47.15H35.44H35.25C35.25 47.1 35.25 47.03 35.25 46.92L35.15 1.52002V0.869995C35.15 0.749995 35.15 0.680005 35.15 0.630005H35.41H47.25C47.25 0.750005 47.25 0.940017 47.25 1.08002C47.25 5.12002 47.25 9.15667 47.25 13.19V23.25L47.18 23.75V42.15C47.18 43.22 47.18 44.29 47.18 45.35V46.75C47.18 46.86 47.18 46.97 47.18 47.07H47.03C46.72 47.07 46.4 47.07 46.09 47.07H36.35L36.28 47.15Z" fill="#062D54"/>
<path d="M46.76 1.06C46.76 5.12 46.76 9.18668 46.76 13.26V22.77H46.69V42.15C46.69 43.22 46.69 44.29 46.69 45.36V46.63H46.08H35.73V46.53L35.63 1.60999V1.04999H46.76V1.06ZM46.84 0.0499878H35.4C34.74 0.0499878 34.65 0.159978 34.63 0.789978V1.60999C34.63 16.5833 34.6633 31.5567 34.73 46.53V46.88C34.73 47.47 34.84 47.56 35.4 47.61C35.69 47.61 35.98 47.61 36.28 47.61H46.02C46.39 47.61 46.76 47.61 47.13 47.61C47.1939 47.61 47.2572 47.5973 47.3161 47.5725C47.375 47.5478 47.4283 47.5115 47.473 47.4659C47.5177 47.4202 47.5528 47.3662 47.5764 47.3068C47.5999 47.2474 47.6113 47.1839 47.61 47.12C47.61 47 47.61 46.89 47.61 46.77C47.61 45.23 47.67 43.7 47.67 42.16V23.77H47.74V15.55C47.74 10.71 47.74 5.86669 47.74 1.02002C47.74 0.10002 47.74 0.0200195 46.82 0.0200195L46.84 0.0499878Z" fill="#062D54"/>
<path d="M205.92 47.14H196.92C196.75 47.15 196.58 47.15 196.41 47.14H196.35C196.354 47.1169 196.354 47.0932 196.35 47.07C196.35 46.93 196.35 46.7901 196.35 46.6501V23.25H196.28V1.25003C196.268 1.02353 196.268 0.796535 196.28 0.570036C196.5 0.557927 196.72 0.557927 196.94 0.570036H207.92C208.1 0.553803 208.28 0.553803 208.46 0.570036C208.441 0.719452 208.441 0.870632 208.46 1.02005V7.09006C208.46 12.8967 208.46 18.7067 208.46 24.52C208.46 29.6667 208.437 34.8167 208.39 39.97V46.33C208.39 46.58 208.39 46.82 208.39 47.06L208.27 47.12H207.92L205.92 47.14Z" fill="#062D54"/>
<path d="M203.51 1.04999H207.92V7.19C207.92 12.97 207.92 18.75 207.92 24.53C207.92 29.75 207.897 34.9633 207.85 40.17V46.34V46.65H196.95V22.77H196.88V1.04999H203.61H203.51ZM203.61 0.0499878H196.92C195.74 0.0499878 195.74 0.0500097 195.74 1.26001V23.77H195.81V46.51C195.8 46.7032 195.8 46.8968 195.81 47.09C195.81 47.46 195.94 47.57 196.31 47.61C196.5 47.6249 196.69 47.6249 196.88 47.61H203.07H207.68C207.833 47.6199 207.987 47.6199 208.14 47.61C208.209 47.6128 208.278 47.6013 208.342 47.5762C208.407 47.551 208.465 47.5129 208.514 47.464C208.563 47.4151 208.601 47.3567 208.626 47.2923C208.651 47.2279 208.663 47.1591 208.66 47.09C208.66 46.84 208.66 46.59 208.66 46.34C208.66 39.07 208.74 31.8 208.76 24.53C208.76 16.69 208.76 8.85335 208.76 1.02002C208.76 0.11002 208.69 0.0200195 207.76 0.0200195L203.61 0.0499878Z" fill="#062D54"/>
</g>
<defs>
<clipPath id="clip0">
<rect width="317.12" height="47.67" fill="white"/>
</clipPath>
</defs>
</svg>
