<svg id="Camada_1" data-name="Camada 1" xmlns="http://www.w3.org/2000/svg" viewBox="0 0 317.12 47.67"><path d="M640.53,688.91c-.14,0-.23,0-.34-.24-.32-.68-.65-1.36-1-2,0,0-2.19-4.45-2.73-5.56l-1.83-3.78q-1.2-2.49-2.43-5a2.59,2.59,0,0,0-.25-.39l-.28-.4-.77.16-.08.3,0,.1a2.24,2.24,0,0,0-.08.42v1.76l0,14c0,.14,0,.29,0,.44s0,.11,0,.14l-.17,0H619.34a2.8,2.8,0,0,1-.51,0,1.69,1.69,0,0,0,0-.49l0-14.47L618.76,643a5.61,5.61,0,0,1,0-.58,1.32,1.32,0,0,1,0-.16h.13c.42,0,.85,0,1.27,0h10.66a.28.28,0,0,1,.29.19c.17.37.35.74.54,1.1s.27.56.41.85l.95,2,1.52,3.15c.54,1.12,1.09,2.24,1.64,3.36s1.12,2.26,1.67,3.4c.22.46.43.93.64,1.4.13.31.27.62.41.92a2.86,2.86,0,0,0,.24.42l.3.49.92-.31V642.63a2.34,2.34,0,0,1,0-.39.16.16,0,0,0,.1,0h11.65l.33,0a2.11,2.11,0,0,1,.06.59v6.74c0,5.5,0,11,0,16.48,0,5.26,0,10.53-.06,15.79l0,6.32c0,.24,0,.48,0,.71H640.53Z" transform="translate(-496.08 -641.75)"/><path d="M646.25,642.75H652v6.65c0,5.56,0,11.12,0,16.68,0,5.35,0,10.71-.06,16.06l0,6.05a1.62,1.62,0,0,1,0,.22H640.62c-.31-.66-.63-1.31-1-2l-.25-.53-.9-1.81-1.59-3.26-1-2-.84-1.74q-1.2-2.49-2.43-5a2.4,2.4,0,0,0-.3-.47.76.76,0,0,1-.08-.11l-.4-.54-.65.13-.11,0-.62.13-.15.61,0,.07a2.21,2.21,0,0,0-.11.56v1.08c0,.23,0,.46,0,.69l0,13.94v.21H619.36v-.33q0-7.08,0-14.16l-.05-25.71V643c0-.08,0-.16,0-.24h11.47c.16.34.33.68.5,1l.41.84c.32.66.63,1.32.94,2,.51,1.06,1,2.12,1.53,3.18l1.62,3.32c.57,1.14,1.13,2.29,1.69,3.44.22.45.42.92.63,1.38l.41.93a4.08,4.08,0,0,0,.28.48l.08.13.41.69.76-.25.2-.07.69-.22V642.75h5.39m0-1h-5.5c-.79,0-.88.09-.89.86,0,.1,0,.2,0,.29q0,7.62,0,15.23v.74l-.2.07c-.1-.17-.22-.33-.31-.51-.35-.78-.68-1.57-1.05-2.34-1.1-2.26-2.22-4.5-3.31-6.76-.84-1.71-1.65-3.43-2.47-5.15-.31-.65-.64-1.29-.95-1.94a.76.76,0,0,0-.73-.48H620.18c-.43,0-.86,0-1.29,0s-.6.14-.63.64c0,.25,0,.51,0,.76l.06,30.75q0,7.23,0,14.46c0,.94.07,1,1,1h11.21c.5,0,.61-.14.65-.63,0-.19,0-.38,0-.58l0-13.94c0-.59,0-1.17,0-1.75a3.06,3.06,0,0,1,.1-.41l.14,0a4.4,4.4,0,0,1,.3.45c.82,1.66,1.63,3.31,2.43,5,.61,1.25,1.21,2.52,1.83,3.78.82,1.69,1.66,3.38,2.49,5.07.41.84.82,1.68,1.22,2.52a.8.8,0,0,0,.77.53h11.32a5.62,5.62,0,0,0,.58,0,.45.45,0,0,0,.46-.44c0-.25,0-.51,0-.76q0-11.06.09-22.11,0-11.61,0-23.22c0-.19,0-.39,0-.58a.5.5,0,0,0-.48-.5,2.69,2.69,0,0,0-.4,0Z" transform="translate(-496.08 -641.75)"/><path d="M731.83,688.92a.78.78,0,0,1-.83-.55c-.73-1.54-1.49-3.08-2.24-4.61l-1.25-2.57-3.43-7.09c-.29-.6-.59-1.19-.9-1.78A1.85,1.85,0,0,0,723,672l-.13-.17-.53-.72-.33.84-.07.15a1.09,1.09,0,0,0-.13.44c0,.27,0,.55,0,.83l0,14.93a2.85,2.85,0,0,1,0,.64,3.28,3.28,0,0,0-.53,0h-10.9a2.44,2.44,0,0,1-.52,0h0s0-.16,0-.43v-1.83c0-1.92,0-3.83,0-5.75,0-9.67-.05-38-.05-38a2.59,2.59,0,0,1,0-.65,3.79,3.79,0,0,0,.52,0h4.12l6.31,0h.83a.67.67,0,0,1,.76.47q1.47,3.11,3,6.19l3.78,7.78c.19.39.38.78.56,1.17l.36.77.19.37.4.77.48-.41a1.2,1.2,0,0,0,.42-1.08c0-2.1,0-9.13,0-9.13v-6.36a3.14,3.14,0,0,1,0-.55,1.86,1.86,0,0,0,.47,0H743.4s0,.11,0,.22v5.28c0,3.5,0,7,0,10.51q0,10.6-.07,21.21l0,8.83a4.35,4.35,0,0,1,0,.52H731.83Z" transform="translate(-496.08 -641.75)"/><path d="M710.21,642.76h4.06l6.32,0h.88a.67.67,0,0,1,.21,0h0s0,0,.1.16c1,2.07,2,4.16,3,6.19l.52,1.08,1.77,3.63c.5,1,1,2,1.49,3.08.19.38.38.78.56,1.17l.36.77c.06.12.12.25.2.39l.11.2.58,1.12.95-.82a1.7,1.7,0,0,0,.6-1.48v-.07c0-2,0-4,0-5.93v-3.11c0-2.12,0-4.24,0-6.36v0h11v4.9c0,3.54,0,7.08,0,10.62q0,10.8-.07,21.59l0,8.46v0h-11c-.22,0-.25,0-.38-.26-.73-1.55-1.48-3.08-2.23-4.61L728,681c-.64-1.3-1.26-2.61-1.89-3.91l-1.54-3.18c-.29-.6-.59-1.2-.9-1.79a2.37,2.37,0,0,0-.29-.42l-.12-.15-1.07-1.45-.66,1.67a1.12,1.12,0,0,0,0,.13,1.47,1.47,0,0,0-.18.62c0,.29,0,.58,0,.87v3.09l0,11.83v.12h-11v-1.77c0-1.92,0-3.84,0-5.77q0-14.26,0-28.53v-9.44a.56.56,0,0,1,0-.13h.05m0-1c-1,0-1.06.08-1.05,1.13q0,19,.05,38c0,2.52,0,5,0,7.58,0,.87.09.95,1,.95H721.1c1.07,0,1.12,0,1.12-1.11l0-14.59c0-.39,0-.78,0-1.16a1.46,1.46,0,0,1,.16-.43,4.11,4.11,0,0,1,.32.44c.3.59.6,1.17.89,1.77,1.15,2.36,2.28,4.73,3.43,7.09s2.34,4.77,3.49,7.18a1.25,1.25,0,0,0,1.28.83h11c1,0,1,0,1-1q0-15,.1-30c0-5.1,0-10.19,0-15.29v-.52c0-.6-.13-.69-.74-.71H731.91c-1,0-1,.07-1,1,0,2.12,0,4.24,0,6.36,0,3,0,6,0,9a.8.8,0,0,1-.25.79c-.12-.23-.21-.39-.29-.56-.31-.65-.6-1.3-.92-2-1.08-2.24-2.18-4.47-3.26-6.71-1.17-2.41-2.35-4.83-3.48-7.25a1.17,1.17,0,0,0-1.22-.76h-.88l-10.33,0Z" transform="translate(-496.08 -641.75)"/><path d="M566.51,688.91a3.54,3.54,0,0,1-.45,0,4.7,4.7,0,0,1,0-.55s0-5,0-6.53c0-1.22-.3-1.52-1.53-1.53h-2.58c-1,0-1.31.34-1.31,1.31q0,3.06,0,6.13v.58a4.87,4.87,0,0,1,0,.55l-.53,0-7.52,0h-3.76s0-.09,0-.17c0-.31,0-.62,0-.92l0-12.24v-7.91h-.08V648.37a5.93,5.93,0,0,1,3.3-5.43,5.27,5.27,0,0,1,2.72-.64h17.21a6.35,6.35,0,0,1,2.18.3,6.23,6.23,0,0,1,4,5.67c0,3.5,0,7,0,10.49,0,7.18-.11,29.57-.11,29.57a4,4,0,0,1,0,.51,4.36,4.36,0,0,1-.51,0h-3.08Zm-4.4-34.59c-1.14,0-1.42.29-1.44,1.43l0,11a3.81,3.81,0,0,0,0,.5,1,1,0,0,0,1.09,1.08h3.17a1,1,0,0,0,1.06-1c0-.14,0-.29,0-.43v-6h0v-5.15c0-1.08-.32-1.4-1.41-1.41h-2.45Z" transform="translate(-496.08 -641.75)"/><path d="M559.76,642.8h12.08a6,6,0,0,1,2,.27,5.72,5.72,0,0,1,3.71,5.2c0,3.43,0,6.78,0,10.49q0,10.8-.08,21.61l0,8v0h-3.11l-4.19,0h-3.6v-2c0-1.53,0-3.07,0-4.6s-.52-2-2-2h-2.58c-1.26,0-1.8.56-1.81,1.81,0,2.09,0,4.19,0,6.28v.5h-2.61l-5,0h-3.29v-4.06q0-4.4,0-8.78v-8.41h-.08V648.37a5.4,5.4,0,0,1,3-5,4.87,4.87,0,0,1,2.48-.57h5.12m3.76,26.06h1.41a1.47,1.47,0,0,0,1.55-1.5c0-.16,0-.32,0-.48v-5.49l0-1v-4.66c0-1.36-.54-1.89-1.9-1.91H562.1c-1.41,0-1.91.51-1.93,1.92v1.49l0,9.54v.08c0,.16,0,.31,0,.46a1.5,1.5,0,0,0,1.58,1.54h1.78m-3.76-27.06h-5.13a5.72,5.72,0,0,0-3,.71,6.41,6.41,0,0,0-3.55,5.86v19.77h.08c0,2.47,0,4.94,0,7.41l0,11.89c0,.43,0,.86,0,1.29s.14.65.67.65l3.19,0h.42l7.53,0c1,0,1,0,1-1.07,0-2.23,0-4.47,0-6.7,0-.71.11-.81.82-.82h2.57c1,0,1,.08,1,1,0,2.18,0,4.35,0,6.53,0,1,0,1.07,1,1.07h.12l7.7,0h3.09c1,0,1-.07,1-1q.06-14.77.11-29.57c0-3.5,0-7,0-10.5a6.42,6.42,0,0,0-6.72-6.46H559.76Zm3.76,26.06h-1.76c-.45,0-.57-.16-.61-.61,0-.16,0-.31,0-.47,0-3.63,0-7.27,0-10.9v-.12c0-.86.07-.92.94-.93h2.45c.82,0,.91.1.91.91v5.65h0v5.37a4.51,4.51,0,0,1,0,.52c0,.42-.16.58-.57.58Z" transform="translate(-496.08 -641.75)"/><path d="M748.89,688.86l-.18,0a1,1,0,0,1,0-.2V665.1h-.09V642.83c0-.15,0-.31,0-.46v0H772a5.87,5.87,0,0,1,5.48,3.48,6.21,6.21,0,0,1,.61,3c0,4.37-.05,15.19-.05,15.19q0,9.3,0,18.59a6.27,6.27,0,0,1-1.24,4,6.15,6.15,0,0,1-3.5,2.29,4,4,0,0,1-.76.06h-23.6Zm13.29-34.53c-1.24,0-1.52.29-1.53,1.52l0,19.82c0,1,.32,1.31,1.3,1.32h2.57c1.27,0,1.52-.25,1.52-1.5V665.2h-.07v-9.41c0-1.15-.3-1.45-1.47-1.46h-2.28Z" transform="translate(-496.08 -641.75)"/><path d="M760.76,642.81H772a5.4,5.4,0,0,1,5,3.22,5.57,5.57,0,0,1,.55,2.74q0,6.57,0,13.13v.77q0,9.95,0,19.88a5.72,5.72,0,0,1-1.14,3.65,5.63,5.63,0,0,1-3.22,2.11,2.76,2.76,0,0,1-.64.05H749.2V664.6h-.09V642.81h11.65m2.13,34.69h1.59c1.55,0,2-.47,2-2V664.7h-.07v-8.91c0-1.42-.53-1.95-2-2h-2.28c-1.51,0-2,.51-2,2v12.09c0,2.58,0,5.15,0,7.72,0,1.27.54,1.82,1.79,1.83h1M749,641.81h-.3c-.37,0-.48.14-.52.5a4.56,4.56,0,0,0,0,.64V665.6h.09v23c0,.58.1.69.66.72h23.63a3.62,3.62,0,0,0,.87-.08,6.6,6.6,0,0,0,3.78-2.47,6.76,6.76,0,0,0,1.35-4.25q0-10.34,0-20.66,0-6.55,0-13.12a6.6,6.6,0,0,0-.67-3.22,6.39,6.39,0,0,0-5.92-3.75H749Zm13.94,34.69h-1c-.7,0-.8-.1-.8-.82l0-12.24c0-2.53,0-5,0-7.58,0-1,.07-1,1-1h2.28c.89,0,1,.09,1,1v9.91h.07v9.79c0,1,0,1-1,1Z" transform="translate(-496.08 -641.75)"/><path d="M785,688.89c-.48,0-1,0-1.43,0h-.1a.49.49,0,0,1,0-.13c0-.34,0-.68,0-1V667.54h-.07v-4.91c0-4.87,0-9.73,0-14.6a5.4,5.4,0,0,1,1.42-3.6,5.47,5.47,0,0,1,2.8-1.88,6.77,6.77,0,0,1,1.65-.23h14.26c1,0,2,0,3,0h.12a5.73,5.73,0,0,1,3.48,1.06,6,6,0,0,1,2.54,4,3.13,3.13,0,0,1,0,.61q0,18.28-.08,36.57c0,1.2,0,2.4,0,3.59v.55a1,1,0,0,1,0,.19H800.88l-.07,0a.54.54,0,0,1,0-.08c0-.1,0-.21,0-.32l0-6.56c0-1.3-.31-1.6-1.6-1.6h-2.51c-1,0-1.34.35-1.35,1.35,0,1.37,0,6.48,0,6.48,0,.29,0,.5,0,.7,0,0,0,.05,0,.07H785Zm13.38-34.57-1.89,0a1,1,0,0,0-1.11,1c0,.1,0,.2,0,.29l0,11.17a4.61,4.61,0,0,0,0,.53.94.94,0,0,0,1,1l1.5,0,1.84,0a.94.94,0,0,0,1-1,3.39,3.39,0,0,0,0-.45v-6h0s0-3.94,0-5.33c0-.9-.35-1.26-1.24-1.26Z" transform="translate(-496.08 -641.75)"/><path d="M806.64,642.8a5.19,5.19,0,0,1,3.18,1,5.59,5.59,0,0,1,2.35,3.68,2.8,2.8,0,0,1,0,.52q0,18.28-.08,36.57c0,1.2,0,2.4,0,3.59v.25H801.29v0l0-6.48c0-1.56-.54-2.09-2.13-2.09h-2.49c-1.26,0-1.83.58-1.84,1.85s0,2.75,0,4.13v2.63H785l-1,0V667h-.07V662.7c0-4.89,0-9.78,0-14.67a4.91,4.91,0,0,1,1.3-3.28,5.09,5.09,0,0,1,2.56-1.72,6.18,6.18,0,0,1,1.51-.21h14.27c1,0,2,0,3,0h.11m-8.77,26.07,1.85,0a1.45,1.45,0,0,0,1.47-1.44,4.26,4.26,0,0,0,0-.5v-5.49l0-1v-.63c0-1.41,0-2.81,0-4.21a1.54,1.54,0,0,0-1.74-1.76h-1l-1.89,0a1.47,1.47,0,0,0-1.6,1.51c0,.12,0,.24,0,.35v.08l0,11v.09a5.72,5.72,0,0,0,0,.59,1.44,1.44,0,0,0,1.48,1.42l1.51,0m8.77-27.07h-.12c-1,0-2,0-3,0H789.25a7.08,7.08,0,0,0-1.78.25,6,6,0,0,0-3.05,2,5.92,5.92,0,0,0-1.54,3.92c0,6.67,0,13.34,0,20H783v19.48c0,.4,0,.81,0,1.22s.11.59.58.61,1,0,1.46,0h10.21c.34,0,.47-.16.51-.51a4.83,4.83,0,0,0,0-.76c0-2.16,0-4.31,0-6.47,0-.73.13-.85.85-.86h2.51c1,0,1.09.08,1.1,1.1q0,3.24,0,6.47a3.65,3.65,0,0,0,0,.47c0,.36.16.48.5.53a2.88,2.88,0,0,0,.41,0h11.14c.64,0,.72-.08.73-.7,0-1.38,0-2.76,0-4.14q0-18.28.08-36.57a3.94,3.94,0,0,0-.05-.69,6.6,6.6,0,0,0-2.74-4.32,6.2,6.2,0,0,0-3.77-1.15Zm-8.77,26.07-1.49,0c-.36,0-.47-.15-.5-.52a5.62,5.62,0,0,1,0-.58c0-3.66,0-7.31,0-11,0-.12,0-.23,0-.35,0-.46.14-.58.61-.59l1.88,0h1c.63,0,.75.13.75.76,0,1.94,0,3.89,0,5.83h0v5.37c0,.18,0,.35,0,.53,0,.36-.16.52-.5.53l-1.83,0Z" transform="translate(-496.08 -641.75)"/><path d="M517.18,688.87l-2,0h-9.74c-.17,0-.27,0-.37-.3q-.94-2.67-1.92-5.32L502,680.05l-1.38-3.71-.87-2.44c-.27-.76-.54-1.52-.82-2.28q-.9-2.46-1.83-4.92a6.56,6.56,0,0,1-.47-2.36c0-5.33,0-10.65,0-16V642.9c0-.17,0-.34,0-.51s0,0,0-.06h11.49a3.09,3.09,0,0,1,.65,0,4.13,4.13,0,0,0,0,.57q0,8.4,0,16.8v.92c0,1.15,0,2.33,0,3.49a7.86,7.86,0,0,0,.66,3.38c.28.7.54,1.41.8,2.12l.34.92a1.56,1.56,0,0,0,.08.21.83.83,0,0,0,.79.73.82.82,0,0,0,.79-.68l.43-1.2c.44-1.2.88-2.39,1.31-3.6a4.08,4.08,0,0,0,.18-1.19c0-2.5,0-5,0-7.5V642.89a4.7,4.7,0,0,1,0-.56,4.53,4.53,0,0,1,.56,0H526a5.63,5.63,0,0,1,0,.61v10.52l0,.5v2.81c0,2.6,0,5.21,0,7.81a5.47,5.47,0,0,1-.36,2c-.31.83-.62,1.65-.92,2.47l-1.14,3c-.41,1.08-.81,2.16-1.21,3.24-.34.92-.67,1.85-1,2.77s-.59,1.67-.89,2.5c-.49,1.33-1,2.66-1.48,4l-.92,2.48c-.19.5-.38,1-.55,1.53-.07.19-.12.25-.37.25Z" transform="translate(-496.08 -641.75)"/><path d="M525.47,642.81h.08v.12c0,2.65,0,5.31,0,8V653h0v3.8c0,2.61,0,5.22,0,7.82a5.17,5.17,0,0,1-.32,1.87c-.31.81-.62,1.64-.93,2.46l-.53,1.41-.6,1.62c-.41,1.08-.82,2.16-1.22,3.25-.34.92-.67,1.84-1,2.76s-.59,1.67-.89,2.51c-.49,1.34-1,2.68-1.49,4l-.67,1.81-.23.61c-.18.47-.36,1-.54,1.47H505.51c-.63-1.76-1.27-3.53-1.92-5.29-.39-1.07-.79-2.15-1.19-3.22-.46-1.22-.91-2.44-1.36-3.66l-.87-2.43c-.27-.76-.54-1.52-.82-2.29-.58-1.58-1.18-3.2-1.83-4.93a6,6,0,0,1-.44-2.18c0-5.37,0-10.83,0-16.11v-5.42h11.14v.11q0,8.4,0,16.8v.91c0,1.14,0,2.33,0,3.48a8.22,8.22,0,0,0,.69,3.59c.28.69.55,1.4.8,2.1.12.31.23.62.34.92,0,.09.06.18.09.25a1.25,1.25,0,0,0,1.25,1h.07a1.28,1.28,0,0,0,1.21-1.09l.43-1.17c.44-1.18.87-2.36,1.29-3.55a4.62,4.62,0,0,0,.21-1.36c0-2.52,0-5,0-7.55V642.81h11m0-1H514.6c-1.06,0-1.08,0-1.08,1.08v10.67q0,5.64,0,11.26a3.26,3.26,0,0,1-.16,1c-.55,1.57-1.13,3.14-1.71,4.71-.06.18-.07.42-.32.43h0c-.27,0-.26-.27-.34-.45a.85.85,0,0,1-.06-.17c-.38-1-.74-2-1.15-3a7.3,7.3,0,0,1-.62-3.17c.07-1.47,0-2.95,0-4.43q0-8.4,0-16.8c0-1.06-.06-1.11-1.13-1.11h-11.5c-.35,0-.47.16-.5.52s0,.47,0,.7c0,7.1,0,14.2,0,21.3a7,7,0,0,0,.5,2.54c.62,1.63,1.24,3.27,1.83,4.92s1.12,3.15,1.69,4.71c.85,2.3,1.71,4.59,2.56,6.89q1,2.65,1.92,5.32a.81.81,0,0,0,.82.63h11.8a.77.77,0,0,0,.84-.6c.24-.71.52-1.42.78-2.13q1.09-2.92,2.17-5.85c.64-1.75,1.25-3.52,1.89-5.27s1.21-3.24,1.82-4.85c.48-1.3,1-2.59,1.45-3.88a6.22,6.22,0,0,0,.39-2.22c0-3.54,0-7.08,0-10.62h0c0-3.67,0-7.35,0-11,0-1.09,0-1.12-1.08-1.12Z" transform="translate(-496.08 -641.75)"/><path d="M658.35,688.91a4.26,4.26,0,0,1-.5,0,4.35,4.35,0,0,1,0-.51L657.69,662v-19q0-.36,0-.72a4.72,4.72,0,0,1,.74,0H687.1s0,.1,0,.2v11.17c0,.24,0,.49,0,.73a.51.51,0,0,0-.21,0l-15.81,0c-.89,0-1.21.37-1.22,1.27s0,1.8,0,2.7.37,1.24,1.26,1.25h11.21a1.84,1.84,0,0,1,.54,0,2.14,2.14,0,0,0,0,.49c0,2.47,0,5-.05,7.43v3.36c0,.2,0,.41,0,.61a1.39,1.39,0,0,1,0,.15H671.46c-1.37,0-1.65.28-1.65,1.64,0,0,0,9.88,0,13.48,0,.63,0,1.27,0,1.9a.62.62,0,0,1,0,.18H658.35Z" transform="translate(-496.08 -641.75)"/><path d="M686.62,642.77v11.08H671.05a1.55,1.55,0,0,0-1.7,1.77c0,.92,0,1.83,0,2.71a1.56,1.56,0,0,0,1.76,1.74h11.22v0c0,2.53,0,5.06-.05,7.59v3.48H671.46c-1.65,0-2.15.5-2.15,2.14v2l0,11.49c0,.47,0,1,0,1.6h-10.9v0l-.1-18.31,0-8v-19c0-.08,0-.17,0-.26h28.42m.31-1h0l-1.4,0H658.46c-.25,0-.51,0-.76,0a.48.48,0,0,0-.48.49q0,.38,0,.75v19c.06,11.14.1,18.74.14,26.34,0,1,0,1,1,1h11.2c.53,0,.65-.14.67-.67s0-1.28,0-1.92q0-6.73,0-13.47c0-1.1.05-1.15,1.15-1.15H682.6c.5,0,.63-.14.66-.63,0-.29,0-.58,0-.87,0-3.52,0-7,.06-10.56,0-.94-.05-1-1-1h-11.2c-.63,0-.76-.14-.77-.76,0-.89,0-1.79,0-2.68,0-.65.12-.75.74-.78h.24l15.51,0h.29a.44.44,0,0,0,.46-.44c0-.25,0-.5,0-.76V642.46c0-.58-.13-.69-.69-.69Z" transform="translate(-496.08 -641.75)"/><path d="M601.66,688.88h-.16s0-.08,0-.14a5.06,5.06,0,0,1,0-.55l0-6.67q0-8.12-.07-16.23,0-7.89,0-15.79v-6.31c0-.28,0-.57,0-.85a1.79,1.79,0,0,1,.44,0h11.09a4.88,4.88,0,0,1,.57,0,5.26,5.26,0,0,1,0,.6v22.19l-.08.5v22.57a4.13,4.13,0,0,1,0,.71h-.65c-.54,0-1.08,0-1.62,0Z" transform="translate(-496.08 -641.75)"/><path d="M610.22,642.8H613v21.81h-.08v23.77h-.19c-.54,0-1.08,0-1.62,0H610l-6,0h-2v-.23l0-6.5q0-8.17-.07-16.36,0-8,0-15.91V642.8h8.38m0-1H601.8l-.46,0a.49.49,0,0,0-.48.49c0,.29,0,.59,0,.88,0,7.37,0,14.73,0,22.1,0,7.62.07,15.24.1,22.86,0,.21,0,.43,0,.64.06.49.18.59.68.59l8.28,0h1.15c.55,0,1.1,0,1.65,0,1.16,0,1.16-.06,1.16-1.21V665.61H614V642.92c0-1.1,0-1.12-1.09-1.12Z" transform="translate(-496.08 -641.75)"/><path d="M532.36,688.9l-.84,0-.19,0c0-.05,0-.12,0-.23l-.1-45.4v-.65c0-.12,0-.19,0-.24l.26,0h11.84c0,.12,0,.31,0,.45q0,6.06,0,12.11V665l-.07.5V683.9c0,1.07,0,2.14,0,3.2l0,1.4c0,.11,0,.22,0,.32l-.15,0c-.31,0-.63,0-.94,0h-9.74Z" transform="translate(-496.08 -641.75)"/><path d="M542.84,642.81q0,6.09,0,12.2v9.51h-.07V683.9c0,1.07,0,2.14,0,3.21v1.27l-.61,0H531.81v-.1l-.1-44.92v-.56h11.13m.08-1H531.48c-.66,0-.75.11-.77.74v.82q0,22.46.1,44.92v.35c0,.59.11.68.67.73.29,0,.58,0,.88,0h9.74c.37,0,.74,0,1.11,0a.48.48,0,0,0,.48-.49c0-.12,0-.23,0-.35,0-1.54.06-3.07.06-4.61V665.52h.07V657.3q0-7.26,0-14.53c0-.92,0-1-.92-1Z" transform="translate(-496.08 -641.75)"/><path d="M702,688.89h-9a4.35,4.35,0,0,1-.51,0h-.06a.2.2,0,0,0,0-.07c0-.14,0-.28,0-.42V665h-.07V643a6.25,6.25,0,0,1,0-.68,6,6,0,0,1,.66,0H704a3,3,0,0,1,.54,0,1.81,1.81,0,0,0,0,.45v6.07q0,8.71,0,17.43,0,7.72-.07,15.45l0,6.36c0,.25,0,.49,0,.73l-.12.06-.35,0Z" transform="translate(-496.08 -641.75)"/><path d="M699.59,642.8H704v6.14q0,8.67,0,17.34,0,7.83-.07,15.64l0,6.17v.31h-10.9V664.52h-.07V642.8h6.73m0-1H693c-1.18,0-1.18,0-1.18,1.21v22.51h.07v22.74a5.62,5.62,0,0,0,0,.58c0,.37.13.48.5.52a3.63,3.63,0,0,0,.57,0h6.19l4.61,0h0a3.55,3.55,0,0,0,.46,0,.5.5,0,0,0,.52-.52c0-.25,0-.5,0-.75,0-7.27.08-14.54.1-21.81q0-11.76,0-23.51c0-.91-.07-1-1-1Z" transform="translate(-496.08 -641.75)"/></svg>