<svg width="100" height="100" viewBox="0 0 100 100" fill="none" xmlns="http://www.w3.org/2000/svg">
<g clip-path="url(#clip0)">
<path d="M43.7722 59.3676L60.0366 50.0002L43.7722 40.6328V59.3676Z" fill="#0C4782"/>
<path d="M92.7879 0H7.21207C3.22876 0 0 3.22876 0 7.21207V92.7879C0 96.7712 3.22876 100 7.21207 100H92.7879C96.7712 100 100 96.7712 100 92.7879V7.21207C100 3.22876 96.7712 0 92.7879 0V0ZM81.2424 50.0511C81.2424 50.0511 81.2424 60.1913 79.9561 65.081C79.2351 67.7574 77.1248 69.8677 74.4484 70.5879C69.5587 71.875 50 71.875 50 71.875C50 71.875 30.4924 71.875 25.5516 70.5368C22.8752 69.8166 20.7649 67.7055 20.0439 65.0291C18.7569 60.1913 18.7569 50 18.7569 50C18.7569 50 18.7569 39.8605 20.0439 34.9709C20.7642 32.2945 22.9263 30.1323 25.5516 29.4121C30.4413 28.125 50 28.125 50 28.125C50 28.125 69.5587 28.125 74.4484 29.4632C77.1248 30.1834 79.2351 32.2945 79.9561 34.9709C81.2943 39.8605 81.2424 50.0511 81.2424 50.0511V50.0511Z" fill="#0C4782"/>
</g>
<defs>
<clipPath id="clip0">
<rect width="100" height="100" fill="white"/>
</clipPath>
</defs>
</svg>
